<?xml version="1.0" encoding="UTF-8" standalone="no"?><!DOCTYPE svg PUBLIC "-//W3C//DTD SVG 1.1//EN" "http://www.w3.org/Graphics/SVG/1.1/DTD/svg11.dtd"><svg width="100%" height="100%" viewBox="0 0 378 75" version="1.1" xmlns="http://www.w3.org/2000/svg" xmlns:xlink="http://www.w3.org/1999/xlink" xml:space="preserve" xmlns:serif="http://www.serif.com/" style="fill-rule:evenodd;clip-rule:evenodd;stroke-linejoin:round;stroke-miterlimit:1.41421;"><g id="g3711"><clipPath id="_clip1"><rect x="0" y="0" width="841.89" height="595.28"/></clipPath><g clip-path="url(#_clip1)"><path id="path3719" d="M115.245,11.09l0,28.24l9.038,0c8.001,0 10.92,-6.872 10.92,-14.12c0,-8 -3.295,-14.12 -12.615,-14.12l-7.343,0Zm-12.425,0.095l-2.731,-0.755l0.19,-2.353l22.026,0c13.932,0 23.346,5.084 23.346,16.945c0,8.096 -4.8,14.026 -12.332,16.287l7.249,13.741c2.071,3.955 4.141,7.248 9.131,8.662l-0.283,2.353l-4.707,0c-6.87,0 -9.413,-0.941 -12.99,-8.096l-7.719,-15.625l-8.755,0l0,17.884c0,1.788 1.507,2.353 3.484,2.636l4.424,0.848l-0.189,2.353l-22.968,0l0.188,-2.353l2.448,-0.754c2.071,-0.469 3.671,-0.942 3.671,-2.73l0,-46.314c0,-1.788 -1.507,-2.353 -3.483,-2.729" style="fill:#388e3c;fill-rule:nonzero;"/><path id="path3723" d="M159.384,11.185l-2.729,-0.754l0.188,-2.354l21.274,0l-0.188,2.354l-2.448,0.848c-2.165,0.564 -3.672,0.846 -3.672,2.636l0,46.313c0,1.788 1.507,2.165 3.484,2.636l2.824,0.848l-0.282,2.353l-21.275,0l0.188,-2.353l2.448,-0.753c2.071,-0.471 3.672,-0.943 3.672,-2.731l0,-46.313c0,-1.79 -1.507,-2.354 -3.484,-2.73" style="fill:#388e3c;fill-rule:nonzero;"/><path id="path3727" d="M202.868,11.09l0,51.962l8.377,0c11.674,0 21.182,-7.906 21.182,-25.698c0,-17.698 -9.508,-26.264 -21.182,-26.264l-8.377,0Zm-15.061,52.622l2.448,-0.754c2.07,-0.469 3.67,-0.942 3.67,-2.73l0,-46.314c0,-1.788 -1.506,-2.353 -3.482,-2.729l-2.731,-0.755l0.189,-2.353l24.756,0c17.511,0 30.03,11.487 30.03,28.712c0,17.227 -12.426,29.276 -29.935,29.276l-25.133,0l0.188,-2.353Z" style="fill:#388e3c;fill-rule:nonzero;"/><path id="path3731" d="M254.443,11.185l-2.729,-0.754l0.188,-2.354l21.275,0l-0.188,2.354l-2.448,0.848c-2.166,0.564 -3.672,0.846 -3.672,2.636l0,46.313c0,1.788 1.506,2.165 3.484,2.636l2.824,0.848l-0.283,2.353l-21.275,0l0.188,-2.353l2.448,-0.753c2.071,-0.471 3.672,-0.943 3.672,-2.731l0,-46.313c0,-1.79 -1.506,-2.354 -3.484,-2.73" style="fill:#388e3c;fill-rule:nonzero;"/><path id="path3735" d="M308.429,67.444c-3.435,0 -6.727,-0.677 -9.876,-2.031c-3.151,-1.352 -5.943,-3.302 -8.376,-5.848c-2.407,-2.545 -4.327,-5.653 -5.759,-9.322c-1.435,-3.67 -2.151,-7.807 -2.151,-12.41c0,-4.604 0.704,-8.781 2.11,-12.532c1.405,-3.749 3.352,-6.98 5.84,-9.688c2.46,-2.68 5.366,-4.75 8.718,-6.214c3.354,-1.463 6.936,-2.192 10.748,-2.192c2.839,0 5.407,0.349 7.706,1.053c2.297,0.705 4.488,1.692 6.569,2.963l1.663,-2.76l3.248,0l0.365,20.541l-3.329,0c-0.432,-2.003 -1.08,-4.175 -1.947,-6.516c-0.864,-2.34 -1.879,-4.323 -3.04,-5.947c-1.297,-1.841 -2.839,-3.281 -4.621,-4.322c-1.784,-1.042 -3.826,-1.563 -6.122,-1.563c-2.622,0 -5.064,0.583 -7.32,1.747c-2.256,1.164 -4.209,2.884 -5.858,5.16c-1.567,2.192 -2.798,4.982 -3.69,8.366c-0.892,3.387 -1.338,7.164 -1.338,11.335c0,3.684 0.468,7.063 1.4,10.136c0.932,3.075 2.264,5.776 3.994,8.104c1.73,2.303 3.776,4.104 6.142,5.405c2.365,1.299 5.006,1.948 7.928,1.948c2.189,0 4.204,-0.344 6.041,-1.034c1.837,-0.691 3.433,-1.603 4.785,-2.74c1.351,-1.191 2.54,-2.543 3.568,-4.059c1.027,-1.516 1.864,-3.168 2.514,-4.952l3.044,1.46c-2.324,5.709 -5.407,9.791 -9.247,12.239c-3.84,2.45 -8.409,3.673 -13.709,3.673" style="fill:#388e3c;fill-rule:nonzero;"/><path id="path3739" d="M374.38,39.638c1.219,1.354 2.119,2.836 2.7,4.446c0.582,1.61 0.872,3.485 0.872,5.621c0,5.089 -1.881,9.283 -5.641,12.585c-3.763,3.303 -8.431,4.951 -14.005,4.951c-2.571,0 -5.142,-0.399 -7.712,-1.197c-2.572,-0.798 -4.791,-1.766 -6.658,-2.902l-1.745,2.963l-3.248,0l-0.568,-19.727l3.288,0c0.676,2.435 1.468,4.635 2.375,6.596c0.905,1.962 2.104,3.795 3.592,5.499c1.406,1.599 3.052,2.871 4.933,3.817c1.88,0.947 4.065,1.422 6.555,1.422c1.868,0 3.498,-0.246 4.892,-0.732c1.393,-0.49 2.522,-1.179 3.388,-2.075c0.868,-0.895 1.509,-1.943 1.929,-3.151c0.42,-1.204 0.629,-2.593 0.629,-4.165c0,-2.304 -0.649,-4.451 -1.948,-6.441c-1.3,-1.994 -3.234,-3.503 -5.805,-4.534c-1.759,-0.701 -3.775,-1.474 -6.048,-2.324c-2.273,-0.848 -4.236,-1.652 -5.885,-2.406c-3.248,-1.459 -5.772,-3.374 -7.572,-5.742c-1.8,-2.366 -2.699,-5.457 -2.699,-9.272c0,-2.192 0.445,-4.234 1.34,-6.128c0.892,-1.894 2.164,-3.585 3.815,-5.074c1.569,-1.407 3.422,-2.507 5.561,-3.306c2.137,-0.797 4.371,-1.198 6.699,-1.198c2.652,0 5.025,0.406 7.122,1.218c2.098,0.812 4.012,1.759 5.744,2.842l1.664,-2.762l3.248,0l0.324,19.12l-3.286,0c-0.596,-2.19 -1.266,-4.289 -2.01,-6.292c-0.745,-2.001 -1.712,-3.814 -2.902,-5.438c-1.164,-1.568 -2.586,-2.822 -4.263,-3.756c-1.679,-0.934 -3.735,-1.4 -6.169,-1.4c-2.572,0 -4.764,0.826 -6.576,2.476c-1.814,1.65 -2.722,3.666 -2.722,6.049c0,2.489 0.583,4.553 1.747,6.189c1.163,1.639 2.855,2.984 5.073,4.039c1.976,0.949 3.919,1.767 5.826,2.456c1.908,0.691 3.754,1.428 5.541,2.212c1.623,0.705 3.187,1.503 4.688,2.396c1.503,0.895 2.808,1.936 3.917,3.125" style="fill:#388e3c;fill-rule:nonzero;"/><rect id="path3741" x="0" y="0" width="8.273" height="8.273" style="fill:#388e3c;fill-rule:nonzero;"/><rect id="path3743" x="0" y="16.548" width="8.273" height="8.273" style="fill:#388e3c;fill-rule:nonzero;"/><rect id="path3745" x="0" y="33.096" width="8.273" height="8.273" style="fill:#388e3c;fill-rule:nonzero;"/><rect id="path3747" x="0" y="49.643" width="8.273" height="8.273" style="fill:#388e3c;fill-rule:nonzero;"/><rect id="path3749" x="16.547" y="57.917" width="8.273" height="8.273" style="fill:#388e3c;fill-rule:nonzero;"/><rect id="path3751" x="16.547" y="41.369" width="8.273" height="8.273" style="fill:#388e3c;fill-rule:nonzero;"/><rect id="path3753" x="16.547" y="24.821" width="8.273" height="8.273" style="fill:#388e3c;fill-rule:nonzero;"/><rect id="path3755" x="16.547" y="8.275" width="8.273" height="8.273" style="fill:#388e3c;fill-rule:nonzero;"/><rect id="path3757" x="33.095" y="16.548" width="8.273" height="8.273" style="fill:#388e3c;fill-rule:nonzero;"/><rect id="path3759" x="49.643" y="8.275" width="8.273" height="8.273" style="fill:#388e3c;fill-rule:nonzero;"/><rect id="path3761" x="66.189" y="0" width="8.273" height="8.273" style="fill:#388e3c;fill-rule:nonzero;"/><rect id="path3763" x="66.189" y="16.548" width="8.273" height="8.273" style="fill:#388e3c;fill-rule:nonzero;"/><rect id="path3765" x="49.643" y="24.821" width="8.273" height="8.273" style="fill:#388e3c;fill-rule:nonzero;"/><rect id="path3767" x="33.095" y="33.096" width="8.273" height="8.273" style="fill:#388e3c;fill-rule:nonzero;"/><rect id="path3769" x="33.095" y="49.643" width="8.273" height="8.273" style="fill:#388e3c;fill-rule:nonzero;"/><rect id="path3771" x="33.095" y="66.191" width="8.273" height="8.273" style="fill:#388e3c;fill-rule:nonzero;"/><rect id="path3773" x="49.643" y="57.917" width="8.273" height="8.273" style="fill:#388e3c;fill-rule:nonzero;"/><rect id="path3775" x="49.643" y="41.369" width="8.273" height="8.273" style="fill:#388e3c;fill-rule:nonzero;"/><rect id="path3777" x="66.189" y="33.096" width="8.273" height="8.273" style="fill:#388e3c;fill-rule:nonzero;"/><rect id="path3779" x="66.189" y="49.643" width="8.273" height="8.273" style="fill:#388e3c;fill-rule:nonzero;"/></g></g></svg>