<?xml version="1.0" encoding="UTF-8" standalone="no"?>
<!-- Created with Inkscape (http://www.inkscape.org/) -->

<svg
   xmlns:dc="http://purl.org/dc/elements/1.1/"
   xmlns:cc="http://creativecommons.org/ns#"
   xmlns:rdf="http://www.w3.org/1999/02/22-rdf-syntax-ns#"
   xmlns:svg="http://www.w3.org/2000/svg"
   xmlns="http://www.w3.org/2000/svg"
   xmlns:sodipodi="http://sodipodi.sourceforge.net/DTD/sodipodi-0.dtd"
   xmlns:inkscape="http://www.inkscape.org/namespaces/inkscape"
   version="1.1"
   id="svg3699"
   xml:space="preserve"
   width="377.95227"
   height="74.463997"
   viewBox="0 0 377.95226 74.463997"
   sodipodi:docname="Ridics_Full_Pack.svg"
   inkscape:version="0.92.3 (2405546, 2018-03-11)"><sodipodi:namedview
     pagecolor="#ffffff"
     bordercolor="#666666"
     borderopacity="1"
     objecttolerance="10"
     gridtolerance="10"
     guidetolerance="10"
     inkscape:pageopacity="0"
     inkscape:pageshadow="2"
     inkscape:window-width="1920"
     inkscape:window-height="1017"
     id="namedview3701"
     showgrid="false"
     inkscape:zoom="0.79289375"
     inkscape:cx="166.45363"
     inkscape:cy="26.309251"
     inkscape:window-x="1912"
     inkscape:window-y="-8"
     inkscape:window-maximized="1"
     inkscape:current-layer="g3707"
     fit-margin-top="0"
     fit-margin-left="0"
     fit-margin-right="0"
     fit-margin-bottom="0" /><metadata
     id="metadata3705"><rdf:RDF><cc:Work
         rdf:about=""><dc:format>image/svg+xml</dc:format><dc:type
           rdf:resource="http://purl.org/dc/dcmitype/StillImage" /><dc:title></dc:title></cc:Work></rdf:RDF></metadata><defs
     id="defs3703"><clipPath
       id="clipPath3715"
       clipPathUnits="userSpaceOnUse"><path
         inkscape:connector-curvature="0"
         id="path3713"
         d="M 0,595.28 H 841.89 V 0 H 0 Z" /></clipPath></defs><g
     style="display:inline"
     transform="matrix(1.3333333,0,0,-1.3333333,-372.28399,434.08532)"
     inkscape:label="Ridics Full Pack"
     inkscape:groupmode="layer"
     id="g3707"><g
       id="g3709"><g
         clip-path="url(#clipPath3715)"
         id="g3711"><g
           transform="translate(365.647,317.2462)"
           id="g3717"><path
             inkscape:connector-curvature="0"
             id="path3719"
             style="opacity:1;fill:#ffffff;fill-opacity:1;fill-rule:nonzero;stroke:none"
             d="m 0,0 v -21.18 h 6.778 c 6.001,0 8.19,5.154 8.19,10.59 0,6 -2.471,10.59 -9.461,10.59 z m -9.319,-0.071 -2.048,0.566 0.142,1.765 h 16.52 c 10.449,0 17.509,-3.813 17.509,-12.709 0,-6.072 -3.6,-10.519 -9.249,-12.215 l 5.437,-10.306 c 1.553,-2.966 3.106,-5.436 6.848,-6.496 l -0.212,-1.765 h -3.53 c -5.153,0 -7.06,0.706 -9.743,6.072 L 6.566,-23.44 H 0 v -13.413 c 0,-1.341 1.13,-1.765 2.613,-1.977 l 3.318,-0.636 -0.142,-1.765 h -17.226 l 0.141,1.765 1.836,0.565 c 1.553,0.352 2.753,0.707 2.753,2.048 v 34.735 c 0,1.341 -1.13,1.765 -2.612,2.047" /></g><g
           transform="translate(398.7511,317.175)"
           id="g3721"><path
             inkscape:connector-curvature="0"
             id="path3723"
             style="opacity:1;fill:#ffffff;fill-opacity:1;fill-rule:nonzero;stroke:none"
             d="m 0,0 -2.047,0.566 0.141,1.765 H 14.05 L 13.909,0.566 12.073,-0.07 C 10.449,-0.493 9.319,-0.705 9.319,-2.047 v -34.735 c 0,-1.341 1.13,-1.624 2.613,-1.977 l 2.118,-0.636 -0.212,-1.765 H -2.118 l 0.141,1.765 1.836,0.565 c 1.553,0.353 2.754,0.707 2.754,2.048 V -2.047 C 2.613,-0.705 1.483,-0.282 0,0" /></g><g
           transform="translate(431.3641,317.2462)"
           id="g3725"><path
             inkscape:connector-curvature="0"
             id="path3727"
             style="opacity:1;fill:#ffffff;fill-opacity:1;fill-rule:nonzero;stroke:none"
             d="m 0,0 v -38.971 h 6.283 c 8.755,0 15.886,5.929 15.886,19.273 C 22.169,-6.424 15.038,0 6.283,0 Z m -11.296,-39.466 1.836,0.565 c 1.553,0.352 2.753,0.707 2.753,2.048 v 34.735 c 0,1.341 -1.13,1.765 -2.612,2.047 l -2.048,0.566 0.142,1.765 H 7.342 c 13.133,0 22.522,-8.615 22.522,-21.534 0,-12.92 -9.319,-21.957 -22.451,-21.957 h -18.85 z" /></g><g
           transform="translate(470.0455,317.175)"
           id="g3729"><path
             inkscape:connector-curvature="0"
             id="path3731"
             style="opacity:1;fill:#ffffff;fill-opacity:1;fill-rule:nonzero;stroke:none"
             d="m 0,0 -2.047,0.566 0.141,1.765 H 14.05 L 13.909,0.566 12.073,-0.07 C 10.449,-0.493 9.319,-0.705 9.319,-2.047 v -34.735 c 0,-1.341 1.13,-1.624 2.613,-1.977 l 2.118,-0.636 -0.212,-1.765 H -2.118 l 0.141,1.765 1.836,0.565 c 1.553,0.353 2.754,0.707 2.754,2.048 V -2.047 C 2.613,-0.705 1.483,-0.282 0,0" /></g><g
           transform="translate(510.5346,274.981)"
           id="g3733"><path
             inkscape:connector-curvature="0"
             id="path3735"
             style="opacity:1;fill:#ffffff;fill-opacity:1;fill-rule:nonzero;stroke:none"
             d="M 0,0 C -2.576,0 -5.045,0.508 -7.407,1.523 -9.77,2.537 -11.864,4 -13.689,5.909 c -1.805,1.909 -3.245,4.24 -4.319,6.992 -1.076,2.752 -1.613,5.855 -1.613,9.307 0,3.453 0.528,6.586 1.582,9.399 1.054,2.812 2.514,5.235 4.38,7.266 1.845,2.01 4.025,3.563 6.539,4.661 2.515,1.097 5.202,1.644 8.061,1.644 2.129,0 4.055,-0.262 5.779,-0.79 1.723,-0.529 3.366,-1.269 4.927,-2.222 l 1.247,2.07 H 15.33 L 15.604,28.83 h -2.497 c -0.324,1.502 -0.81,3.131 -1.46,4.887 -0.648,1.755 -1.409,3.242 -2.28,4.46 -0.973,1.381 -2.129,2.461 -3.466,3.242 -1.338,0.781 -2.869,1.172 -4.591,1.172 -1.967,0 -3.798,-0.437 -5.49,-1.31 -1.692,-0.873 -3.157,-2.163 -4.394,-3.87 -1.175,-1.644 -2.098,-3.737 -2.767,-6.275 -0.669,-2.54 -1.004,-5.373 -1.004,-8.501 0,-2.763 0.351,-5.297 1.05,-7.602 0.699,-2.306 1.698,-4.332 2.996,-6.078 1.297,-1.727 2.832,-3.078 4.606,-4.054 1.774,-0.974 3.755,-1.461 5.946,-1.461 1.642,0 3.153,0.258 4.531,0.776 1.378,0.518 2.575,1.202 3.589,2.055 1.013,0.893 1.905,1.907 2.676,3.044 0.77,1.137 1.398,2.376 1.885,3.714 l 2.283,-1.095 C 15.474,7.652 13.162,4.591 10.282,2.755 7.402,0.917 3.975,0 0,0" /></g><g
           transform="translate(559.9982,295.8352)"
           id="g3737"><path
             inkscape:connector-curvature="0"
             id="path3739"
             style="opacity:1;fill:#ffffff;fill-opacity:1;fill-rule:nonzero;stroke:none"
             d="m 0,0 c 0.914,-1.015 1.589,-2.127 2.025,-3.334 0.436,-1.208 0.654,-2.614 0.654,-4.216 0,-3.817 -1.411,-6.962 -4.231,-9.439 -2.822,-2.477 -6.323,-3.713 -10.504,-3.713 -1.928,0 -3.856,0.299 -5.784,0.898 -1.929,0.598 -3.593,1.324 -4.993,2.176 l -1.309,-2.222 h -2.436 l -0.426,14.795 h 2.466 c 0.507,-1.826 1.101,-3.476 1.781,-4.947 0.679,-1.471 1.578,-2.846 2.694,-4.124 1.055,-1.199 2.289,-2.153 3.7,-2.863 1.41,-0.71 3.049,-1.066 4.916,-1.066 1.401,0 2.624,0.184 3.669,0.549 1.045,0.367 1.892,0.884 2.541,1.556 0.651,0.671 1.132,1.457 1.447,2.363 0.315,0.903 0.472,1.945 0.472,3.124 0,1.728 -0.487,3.338 -1.461,4.831 -0.975,1.495 -2.426,2.627 -4.354,3.4 -1.319,0.526 -2.831,1.106 -4.536,1.743 -1.705,0.636 -3.177,1.239 -4.414,1.805 -2.436,1.094 -4.329,2.53 -5.679,4.306 -1.35,1.775 -2.024,4.093 -2.024,6.954 0,1.644 0.334,3.176 1.005,4.596 0.669,1.421 1.623,2.689 2.861,3.806 1.177,1.055 2.567,1.88 4.171,2.479 1.603,0.598 3.278,0.899 5.024,0.899 1.989,0 3.769,-0.305 5.342,-0.914 1.573,-0.609 3.009,-1.319 4.308,-2.131 l 1.248,2.071 H 0.609 L 0.852,9.042 h -2.465 c -0.447,1.643 -0.949,3.217 -1.507,4.719 -0.559,1.501 -1.284,2.861 -2.177,4.079 -0.873,1.176 -1.939,2.116 -3.197,2.817 -1.259,0.7 -2.801,1.05 -4.627,1.05 -1.929,0 -3.573,-0.62 -4.932,-1.857 -1.36,-1.238 -2.041,-2.75 -2.041,-4.537 0,-1.867 0.437,-3.415 1.31,-4.642 0.872,-1.229 2.141,-2.238 3.805,-3.029 C -13.497,6.93 -12.04,6.317 -10.61,5.8 -9.179,5.282 -7.794,4.729 -6.454,4.141 -5.237,3.612 -4.064,3.014 -2.938,2.344 -1.811,1.673 -0.832,0.892 0,0" /></g><path
           inkscape:connector-curvature="0"
           id="path3741"
           style="opacity:1;fill:#ffffff;fill-opacity:1;fill-rule:nonzero;stroke:none"
           d="m 279.213,319.359 h 6.205 v 6.205 h -6.205 z" /><path
           inkscape:connector-curvature="0"
           id="path3743"
           style="opacity:1;fill:#ffffff;fill-opacity:1;fill-rule:nonzero;stroke:none"
           d="m 279.213,306.948 h 6.205 v 6.205 h -6.205 z" /><path
           inkscape:connector-curvature="0"
           id="path3745"
           style="opacity:1;fill:#ffffff;fill-opacity:1;fill-rule:nonzero;stroke:none"
           d="m 279.213,294.537 h 6.205 v 6.205 h -6.205 z" /><path
           inkscape:connector-curvature="0"
           id="path3747"
           style="opacity:1;fill:#ffffff;fill-opacity:1;fill-rule:nonzero;stroke:none"
           d="m 279.213,282.127 h 6.205 v 6.205 h -6.205 z" /><path
           inkscape:connector-curvature="0"
           id="path3749"
           style="opacity:1;fill:#ffffff;fill-opacity:1;fill-rule:nonzero;stroke:none"
           d="m 291.623,275.921 h 6.205 v 6.205 h -6.205 z" /><path
           inkscape:connector-curvature="0"
           id="path3751"
           style="opacity:1;fill:#ffffff;fill-opacity:1;fill-rule:nonzero;stroke:none"
           d="m 291.623,288.332 h 6.205 v 6.205 h -6.205 z" /><path
           inkscape:connector-curvature="0"
           id="path3753"
           style="opacity:1;fill:#ffffff;fill-opacity:1;fill-rule:nonzero;stroke:none"
           d="m 291.623,300.743 h 6.205 v 6.205 h -6.205 z" /><path
           inkscape:connector-curvature="0"
           id="path3755"
           style="opacity:1;fill:#ffffff;fill-opacity:1;fill-rule:nonzero;stroke:none"
           d="m 291.623,313.153 h 6.205 v 6.205 h -6.205 z" /><path
           inkscape:connector-curvature="0"
           id="path3757"
           style="opacity:1;fill:#ffffff;fill-opacity:1;fill-rule:nonzero;stroke:none"
           d="m 304.034,306.948 h 6.205 v 6.205 h -6.205 z" /><path
           inkscape:connector-curvature="0"
           id="path3759"
           style="opacity:1;fill:#ffffff;fill-opacity:1;fill-rule:nonzero;stroke:none"
           d="m 316.445,313.153 h 6.205 v 6.205 h -6.205 z" /><path
           inkscape:connector-curvature="0"
           id="path3761"
           style="opacity:1;fill:#ffffff;fill-opacity:1;fill-rule:nonzero;stroke:none"
           d="m 328.855,319.359 h 6.205 v 6.205 h -6.205 z" /><path
           inkscape:connector-curvature="0"
           id="path3763"
           style="opacity:1;fill:#ffffff;fill-opacity:1;fill-rule:nonzero;stroke:none"
           d="m 328.855,306.948 h 6.205 v 6.205 h -6.205 z" /><path
           inkscape:connector-curvature="0"
           id="path3765"
           style="opacity:1;fill:#ffffff;fill-opacity:1;fill-rule:nonzero;stroke:none"
           d="m 316.445,300.743 h 6.205 v 6.205 h -6.205 z" /><path
           inkscape:connector-curvature="0"
           id="path3767"
           style="opacity:1;fill:#ffffff;fill-opacity:1;fill-rule:nonzero;stroke:none"
           d="m 304.034,294.537 h 6.205 v 6.205 h -6.205 z" /><path
           inkscape:connector-curvature="0"
           id="path3769"
           style="opacity:1;fill:#ffffff;fill-opacity:1;fill-rule:nonzero;stroke:none"
           d="m 304.034,282.127 h 6.205 v 6.205 h -6.205 z" /><path
           inkscape:connector-curvature="0"
           id="path3771"
           style="opacity:1;fill:#ffffff;fill-opacity:1;fill-rule:nonzero;stroke:none"
           d="m 304.034,269.716 h 6.205 v 6.205 h -6.205 z" /><path
           inkscape:connector-curvature="0"
           id="path3773"
           style="opacity:1;fill:#ffffff;fill-opacity:1;fill-rule:nonzero;stroke:none"
           d="m 316.445,275.921 h 6.205 v 6.205 h -6.205 z" /><path
           inkscape:connector-curvature="0"
           id="path3775"
           style="opacity:1;fill:#ffffff;fill-opacity:1;fill-rule:nonzero;stroke:none"
           d="m 316.445,288.332 h 6.205 v 6.205 h -6.205 z" /><path
           inkscape:connector-curvature="0"
           id="path3777"
           style="opacity:1;fill:#ffffff;fill-opacity:1;fill-rule:nonzero;stroke:none"
           d="m 328.855,294.537 h 6.205 v 6.205 h -6.205 z" /><path
           inkscape:connector-curvature="0"
           id="path3779"
           style="opacity:1;fill:#ffffff;fill-opacity:1;fill-rule:nonzero;stroke:none"
           d="m 328.855,282.127 h 6.205 v 6.205 h -6.205 z" /></g></g></g></svg>