<?xml version="1.0" encoding="utf-8"?>
<!-- Generator: Adobe Illustrator 19.0.0, SVG Export Plug-In . SVG Version: 6.00 Build 0)  -->
<svg version="1.1" id="Capa_1" xmlns="http://www.w3.org/2000/svg" xmlns:xlink="http://www.w3.org/1999/xlink" x="0px" y="0px"
	 viewBox="-68 160.3 473.7 473.7" style="enable-background:new -68 160.3 473.7 473.7;" xml:space="preserve">
<style type="text/css">
	.st0{fill:#5777CC;}
	.st1{fill:#6990E8;}
	.st2{fill:#FFAC06;}
	.st3{fill:#FFFFFF;}
</style>
<g id="XMLID_1_">
	<g>
		<path class="st0" d="M168.8,160.3c130.8,0,236.8,106,236.8,236.8c0,130.8-106,236.8-236.8,236.8V160.3z"/>
	</g>
	<g>
	</g>
</g>
<path class="st1" d="M168.8,160.3C38,160.3-68,266.4-68,397.2C-68,528,38,634,168.8,634C299.6,634,299.6,160.3,168.8,160.3z"/>
<g>
	<polygon class="st2" points="168.4,201.4 174.2,219.2 192.9,219.2 177.8,230.2 183.6,247.9 168.4,236.9 153.3,247.9 159.1,230.2 
		144,219.2 162.7,219.2 	"/>
	<polygon class="st2" points="168.4,537 174.2,554.8 192.9,554.8 177.8,565.8 183.6,583.6 168.4,572.6 153.3,583.6 159.1,565.8 
		144,554.8 162.7,554.8 	"/>
	<polygon class="st2" points="260.5,231.1 266.3,248.9 285,248.9 269.9,259.9 275.7,277.7 260.5,266.7 245.4,277.7 251.2,259.9 
		236.1,248.9 254.8,248.9 	"/>
	<polygon class="st2" points="323.4,293.1 329.2,310.9 347.9,310.9 332.7,321.9 338.5,339.7 323.4,328.7 308.3,339.7 314,321.9 
		298.9,310.9 317.6,310.9 	"/>
	<polygon class="st2" points="324.9,449.8 330.7,467.6 349.4,467.6 334.2,478.6 340,496.3 324.9,485.4 309.8,496.3 315.5,478.6 
		300.4,467.6 319.1,467.6 	"/>
	<polygon class="st2" points="15.8,293.1 21.5,310.9 40.2,310.9 25.1,321.9 30.9,339.7 15.8,328.7 0.6,339.7 6.4,321.9 -8.7,310.9 
		10,310.9 	"/>
	<polygon class="st2" points="337.9,367.9 343.7,385.6 362.4,385.6 347.3,396.6 353.1,414.4 337.9,403.4 322.8,414.4 328.6,396.6 
		313.5,385.6 332.2,385.6 	"/>
	<polygon class="st2" points="1.5,367.9 7.2,385.6 25.9,385.6 10.8,396.6 16.6,414.4 1.5,403.4 -13.7,414.4 -7.9,396.6 -23,385.6 
		-4.3,385.6 	"/>
	<polygon class="st2" points="13.7,449.8 19.5,467.6 38.2,467.6 23.1,478.6 28.8,496.3 13.7,485.4 -1.4,496.3 4.4,478.6 
		-10.7,467.6 8,467.6 	"/>
	<polygon class="st2" points="263.3,514.4 269,532.2 287.7,532.2 272.6,543.2 278.4,561 263.3,550 248.1,561 253.9,543.2 
		238.8,532.2 257.5,532.2 	"/>
	<polygon class="st2" points="79.3,231.1 85.1,248.9 103.8,248.9 88.7,259.9 94.4,277.7 79.3,266.7 64.2,277.7 70,259.9 54.8,248.9 
		73.5,248.9 	"/>
	<polygon class="st2" points="72.5,513.3 78.3,531.1 97,531.1 81.8,542.1 87.6,559.9 72.5,548.9 57.4,559.9 63.1,542.1 48,531.1 
		66.7,531.1 	"/>
</g>
<g transform="translate(0.000000,1280.000000) scale(0.100000,-0.100000)">
	<path class="st3" d="M1136.5,9684.8c-115-9.8-225.2-51.8-314.1-120c-118.6-90.9-191.6-223.6-210-381.6c-5-42.7-3.4-130,3.2-172.5
		c24.5-158.6,92.9-296.1,224.3-450.2c32-38,130.4-136.3,178.4-178.6c70.7-62.5,100-86.4,309.1-252.9
		c66.8-53.2,123.9-100.9,162.9-135.9c41.4-37.3,103.9-101.4,127.7-131.1c22.5-28,50.2-69.8,61.6-92.7c4.3-8.9,8.6-16.1,9.3-16.1
		c0.9-0.2,2,2,3,4.8c2,8.2,32.3,57.7,49.1,80.4c24.3,32.7,53.2,64.8,96.8,107.7c64.3,63.4,110.7,102.5,278.2,235.4
		c191.6,152,266.3,216.8,353.4,305.6c173.8,177.7,263.4,338.1,292.7,524.7c6.6,42.5,7.3,150.9,0.9,190.9
		c-20.2,128.4-70.2,230-155,314.7c-89.3,89.5-205.4,145.9-337.5,163.8c-38.6,5.5-111.8,5.2-148.8,0
		c-161.6-23.2-289.3-105.4-368.8-237.7c-23.9-39.5-46.4-90.4-57.7-131.1c-2.7-10.5-5.7-18.9-6.4-18.9s-3.6,8.4-6.4,18.9
		c-26.6,94.3-85.7,188.6-157.3,250c-75.4,65-164.3,104.3-267.9,118.6C1226,9685.5,1166,9687.1,1136.5,9684.8z"/>
</g>
</svg>
