<?xml version="1.0" encoding="UTF-8" standalone="no"?>
<svg
   xmlns:dc="http://purl.org/dc/elements/1.1/"
   xmlns:cc="http://creativecommons.org/ns#"
   xmlns:rdf="http://www.w3.org/1999/02/22-rdf-syntax-ns#"
   xmlns:svg="http://www.w3.org/2000/svg"
   xmlns="http://www.w3.org/2000/svg"
   xmlns:sodipodi="http://sodipodi.sourceforge.net/DTD/sodipodi-0.dtd"
   xmlns:inkscape="http://www.inkscape.org/namespaces/inkscape"
   stroke-miterlimit="1.4142"
   version="1.1"
   viewBox="0 0 182.10883 234.54095"
   id="svg367"
   sodipodi:docname="pdf.svg"
   width="182.10883"
   height="234.54095"
   style="clip-rule:evenodd;fill-rule:evenodd;stroke-linejoin:round;stroke-miterlimit:1.41419995"
   inkscape:version="0.92.3 (2405546, 2018-03-11)">
  <metadata
     id="metadata371">
    <rdf:RDF>
      <cc:Work
         rdf:about="">
        <dc:format>image/svg+xml</dc:format>
        <dc:type
           rdf:resource="http://purl.org/dc/dcmitype/StillImage" />
        <dc:title></dc:title>
      </cc:Work>
    </rdf:RDF>
  </metadata>
  <sodipodi:namedview
     pagecolor="#ffffff"
     bordercolor="#666666"
     borderopacity="1"
     objecttolerance="10"
     gridtolerance="10"
     guidetolerance="10"
     inkscape:pageopacity="0"
     inkscape:pageshadow="2"
     inkscape:window-width="1920"
     inkscape:window-height="1001"
     id="namedview369"
     showgrid="false"
     fit-margin-top="0"
     fit-margin-left="0"
     fit-margin-right="0"
     fit-margin-bottom="0"
     inkscape:zoom="0.40117746"
     inkscape:cx="393.19909"
     inkscape:cy="243.78167"
     inkscape:window-x="-9"
     inkscape:window-y="41"
     inkscape:window-maximized="1"
     inkscape:current-layer="g356" />
  <g
     transform="matrix(0.48,0,0,0.48,-215.70091,-355.04072)"
     id="g358">
    <g
       transform="translate(0,181.04)"
       id="g356">
      <g
         transform="matrix(0.47195,0,0,0.47195,152.4,458.84)"
         id="g84">
        <path
           d="M 629.27,911.11 V 287.09 c 0,-41.778 33.867,-75.646 75.645,-75.646 h 416.3 l 311.9,311.9 v 451.04 h -803.84 v -63.27 z"
           id="path58"
           inkscape:connector-curvature="0"
           style="fill:#eb0005" />
        <g
           transform="matrix(1,0,0,0.87323,0,160.45)"
           id="g62">
          <path
             d="m 1433.1,932.09 v 241.64 c 0,38.83 -33.86,70.3 -75.64,70.3 H 704.9 c -41.778,0 -75.645,-31.47 -75.645,-70.3 V 932.09 h 803.84 z"
             id="path60"
             inkscape:connector-curvature="0"
             style="fill:#c20004" />
        </g>
        <g
           transform="matrix(2.1188,0,0,2.1188,-322.9,-1007.5)"
           id="g66">
          <path
             d="M 712.71,904 H 565.42 c -0.246,-0.011 -0.492,-0.011 -0.737,-0.034 -0.735,-0.068 -1.46,-0.239 -2.148,-0.505 -1.148,-0.445 -2.187,-1.157 -3.017,-2.067 -0.829,-0.91 -1.442,-2.01 -1.779,-3.194 -0.135,-0.474 -0.226,-0.959 -0.271,-1.449 -0.023,-0.245 -0.023,-0.491 -0.034,-0.737 v -186.12 c 0.011,-0.246 0.011,-0.492 0.034,-0.737 0.068,-0.735 0.239,-1.46 0.505,-2.148 0.445,-1.148 1.157,-2.187 2.067,-3.017 0.91,-0.829 2.01,-1.442 3.195,-1.779 0.473,-0.135 0.958,-0.226 1.448,-0.271 0.245,-0.023 0.491,-0.023 0.737,-0.034 h 147.29 c 0.245,0.011 0.491,0.022 0.736,0.034 0.244,0.034 0.489,0.057 0.731,0.102 0.484,0.09 0.958,0.225 1.417,0.403 0.918,0.356 1.768,0.882 2.496,1.545 0.91,0.83 1.622,1.869 2.066,3.017 0.267,0.688 0.437,1.413 0.506,2.148 0.022,0.245 0.022,0.491 0.034,0.737 v 186.12 c -0.012,0.246 -0.012,0.492 -0.034,0.737 -0.069,0.735 -0.239,1.46 -0.506,2.148 -0.444,1.148 -1.156,2.187 -2.066,3.017 -0.91,0.829 -2.011,1.442 -3.195,1.779 -0.473,0.135 -0.958,0.226 -1.449,0.271 -0.244,0.023 -0.491,0.023 -0.736,0.034 z m -7.987,-186.12 h -131.32 v 170.15 h 131.32 z m -14.649,137.78 v 11.148 H 583.984 V 855.66 Z m -106.09,-23.329 h 106.09 v 11.148 h -106.09 z m 0,-23.33 h 106.09 v 11.149 h -106.09 z m 0,-23.329 h 106.09 v 11.149 h -106.09 z m 55.083,-46.619 h 51.009 v 34.438 h -51.009 z m -55.083,23.329 h 42.215 v 11.109 h -42.215 z m 0,-23.329 h 42.215 v 11.149 h -42.215 z"
             id="path64"
             inkscape:connector-curvature="0"
             style="fill:#ffffff" />
        </g>
        <g
           transform="translate(3.2597)"
           id="g70">
          <path
             d="m 1117.8,211.44 h 0.14 l 311.94,311.94 v 260.83 c -2.19,1.131 -4.06,1.055 -5.56,-0.442 -14.77,-14.769 -292.47,-273.35 -292.47,-294.24 0,-91.863 -13.88,-275.89 -14.05,-278.09 z"
             id="path68"
             inkscape:connector-curvature="0"
             style="fill:url(#a)" />
        </g>
        <g
           transform="translate(3.2597)"
           id="g74">
          <path
             d="m 1117.8,211.44 h 0.14 l 311.94,311.94 h -233.33 c -20.88,0 -40.91,-8.297 -55.68,-23.066 -14.77,-14.769 -23.07,-34.8 -23.07,-55.686 v -233.19 z"
             id="path72"
             inkscape:connector-curvature="0"
             style="fill:#c20004" />
        </g>
        <g
           transform="translate(0,44.289)"
           id="g82"
           style="fill:#ffffff;fill-rule:nonzero">
          <path
             d="M 876.68,1138.4 H 837.113 V 983.51 h 44.116 c 17.28,0 29.411,0.847 36.394,2.539 6.982,1.693 12.907,4.585 17.773,8.675 5.713,4.726 10.068,10.634 13.066,17.724 2.997,7.08 4.496,14.97 4.496,23.64 0,9.24 -1.481,17.37 -4.443,24.39 -2.963,7.01 -7.335,12.78 -13.119,17.3 -4.373,3.38 -9.521,5.81 -15.446,7.3 -5.924,1.48 -15.411,2.22 -28.458,2.22 H 876.68 v 51.1 z m 0,-85.17 h 8.041 c 10.156,0 17.244,-1.39 21.264,-4.18 4.021,-2.78 6.031,-7.53 6.031,-14.23 0,-6.49 -1.975,-11.11 -5.925,-13.86 -3.95,-2.75 -10.932,-4.12 -20.947,-4.12 h -8.464 z"
             id="path76"
             inkscape:connector-curvature="0" />
          <path
             d="M 974.43,1138.4 V 983.51 h 32.269 c 24.05,0 41.06,1.129 51.04,3.386 9.98,2.257 18.75,6.03 26.29,11.32 9.81,6.842 17.25,15.602 22.33,26.292 5.07,10.68 7.61,22.87 7.61,36.55 0,13.68 -2.54,25.87 -7.61,36.55 -5.08,10.69 -12.52,19.45 -22.33,26.29 -7.47,5.22 -16.01,8.94 -25.6,11.16 -9.59,2.22 -24.47,3.34 -44.64,3.34 H 974.43 Z m 41.789,-34.71 h 7.09 c 16.57,0 28.67,-3.4 36.29,-10.21 7.61,-6.8 11.42,-17.61 11.42,-32.42 0,-14.81 -3.81,-25.67 -11.42,-32.59 -7.62,-6.91 -19.72,-10.36 -36.29,-10.36 h -7.09 z"
             id="path78"
             inkscape:connector-curvature="0" />
          <path
             d="M 1140.4,1138.4 V 983.51 h 94.9 v 33.958 h -53.74 v 26.87 h 50.67 v 33.22 h -50.67 v 60.84 h -41.16 z"
             id="path80"
             inkscape:connector-curvature="0" />
        </g>
      </g>
    </g>
  </g>
  <defs
     id="defs365">
    <linearGradient
       id="a"
       x2="1"
       gradientTransform="matrix(278.39,273.89,-273.89,278.39,1214.6,446.11)"
       gradientUnits="userSpaceOnUse">
      <stop
         stop-color="#212121"
         stop-opacity=".61569"
         offset="0"
         id="stop360" />
      <stop
         stop-color="#4d4d4d"
         stop-opacity="0"
         offset="1"
         id="stop362" />
    </linearGradient>
  </defs>
</svg>
