<svg version="1" xmlns="http://www.w3.org/2000/svg" width="2666.667" height="2666.667" viewBox="0 0 2000.000000 2000.000000"><path d="M954.5 41.1c-174.9 8.2-341.2 63.1-488.2 161-74.3 49.5-145 113.1-203.9 183.5C198.3 462.2 145.5 550.9 108 645c-109.7 274.7-85.4 588.5 65 842.5 42.2 71.2 89.5 132 148.5 191 35.4 35.4 64.4 60.7 103 89.7 74.6 56.1 162.8 103.8 248 134.2 7.2 2.6 14.6 5.3 16.5 6 1.9.8 12.3 4.1 23 7.4 136.9 42.8 280.3 54.6 422.7 34.7 24.2-3.4 64.1-10.9 84.8-15.9l10-2.4 7 6.7c9 8.7 17.2 14.7 27.1 19.8 13.6 7 21.5 8.9 53.6 12.8 129.7 15.4 188 20.8 255.8 23.5 74.6 3 150-1.2 216.2-11.9 16.2-2.7 18-3.2 23.4-6.6 51.9-33.1 75.3-113.4 54.8-188.4-3.5-12.7-3.5-14 .4-14.1.8 0 4.4-1.9 8-4.3 30.9-20 54.2-57 63.6-100.7 3.9-18.2 4.9-30.2 4.3-51.9-.9-33.3-7.7-61.1-21.6-87.8l-3.8-7.2 9.3-5.7c53.4-33 80.9-104.3 65.9-170.9-8.3-36.7-27.6-67.2-56.4-88.7-5.3-4-9.7-7.3-9.9-7.4-.1 0 .4-2.2 1.2-4.7.8-2.6 3.3-12.9 5.6-22.9 2.7-11.5 6.1-22.8 9.1-30.3 10.9-27.3 15.7-58.9 13.1-87-.6-7-.5-14.5.4-25 10-114.7-2.5-238.3-35.7-350.9l-5.8-19.9 1.4-10.1c5.3-37.8 8.4-78.9 9.2-120.1 1.1-58.9-2.4-96.8-14.3-154-5.3-25.7-8.1-36.3-13.9-53.5-15.6-45.3-38-81.9-69.5-113.1-68-67.3-164.9-88.8-257.2-57-6.4 2.2-14.2 5.2-17.3 6.6-3.2 1.4-6.2 2.5-6.8 2.5-.5 0-7.3-4.2-15.1-9.3-83.5-55.3-170.8-95.9-265.1-123.1-100.4-29-207-41.4-312-36.5zm112 33.8c71.7 6 124.7 15.4 189 33.6 68.5 19.4 137.5 48.2 200.5 84 23.2 13.1 57.1 34.2 56.9 35.4 0 .3-3.4 2.8-7.5 5.4-29.5 19.1-62.3 51.5-86.3 85.1-18.2 25.6-37.1 60.9-49.5 92.3-6.4 16.2-7.7 21-10.6 37.8-5.3 31.9-7.2 56.6-7.2 95.5 0 49.8 4.5 102.8 14.2 164.4 1.7 10.4 3 19.6 3 20.5 0 .9-2.5-3.1-5.6-8.8-30.1-56.5-80.4-97-141.2-113.7-37.7-10.3-81.7-10.3-119.4 0-78.5 21.6-139.9 84.1-159.7 162.7-14.8 58.7-5.6 121.4 25.5 172.9 9.4 15.6 19 27.7 33.8 42.6 20 20.1 38.2 33 62.1 44.5 64.3 30.7 138.2 29.7 201.8-2.8 38.7-19.8 71-51 94-90.8 13.6-23.5 25.2-59.9 27.3-85.7.4-4.6 1-9.1 1.3-10 .3-1 7.3 31.2 15.4 71.4 8.1 40.2 14.5 73.3 14.3 73.5-.3.3-10.9 1.6-23.8 2.9-69.2 7.2-64.3 6.3-81.4 14.3-41.9 19.7-69.1 60-73.3 108.7-.6 6.4-1.2 11.8-1.3 12-.2.1-7.1 2.3-15.3 4.9-37.2 11.4-57.7 18.7-61.1 21.7-5.6 4.9-15 17.3-21.1 27.5-25.6 43.6-44.6 123.6-51.8 218.9-2.2 29.3-1.4 27-11 31.1-51.2 21.6-105.8 35.8-161.5 41.9-19.3 2.2-70.4 2.5-89 .6-114.9-11.8-220.1-59.4-330.1-149.2-39.1-32-91.9-82.8-128.9-124-10.1-11.3-20.2-22-22.4-23.9-19.5-16.1-49.8-11.3-63.8 10.3-5 7.8-6.9 14.3-6.9 24.2 0 9 2.4 17 7.2 23.9 7.3 10.6 51.5 58 80.9 86.8 147.1 144.1 294.6 222.3 450 238.6 81.9 8.6 175.4-3.3 258.1-32.9 6.1-2.2 11.5-4 12-4s.9 9.6.9 22.7c0 61.2 6.8 143.6 16.6 201.8 10.5 62.3 26.1 112.1 43.7 139.3 5.6 8.7 16.4 20.2 22.9 24.4 6.1 4 6.3 3.9-14.2 7.2-56.2 9-99.7 12.6-154 12.6-118.3 0-230.8-21.3-340.2-64.3-153.4-60.4-290.3-163-392.4-294.3C158.8 1428.8 92.7 1261.3 76.6 1085c-4.4-47.5-4.7-119.5-.7-163.5 13.2-145.6 55.6-276.6 129.6-400 57.5-95.9 136.9-185.1 227-254.9C577.4 154.2 754.2 86.9 935.5 75c8.8-.6 18.3-1.2 21-1.4 10.4-.8 97.6.3 110 1.3zM1675.8 225c31.8 3.5 59.9 12.7 85.7 28.3 50.8 30.6 87.1 80.8 105.5 146.2 4.2 14.8 12.9 56.8 15.4 74.5 11.7 81 6.5 177.3-16.5 304-6.2 34.2-38.1 189.6-39.2 190.6-.1.1-4.2-.2-9.2-.6-38.2-3.5-120.6-4.5-165.5-2.1-58.3 3.1-93.8 5.7-157.4 11.7-20.3 1.9-37.3 3.1-37.7 2.7-.3-.5-1.4-5.1-2.3-10.3-1-5.2-8.2-41.2-16.1-80-15.4-76-23.6-117.7-29-149.4-21.8-126.8-25.7-212.5-12.9-287 2.2-12.4 3.6-17.5 8.6-30 40.3-101.1 111-170.7 195.3-192.4 10.5-2.7 25.7-5.4 36.5-6.5 8-.8 29.7-.6 38.8.3zm-490.4 405.5c49.9 5.8 95.1 30.3 127.4 69 20.8 24.8 34.8 54 41.9 87.4 2.6 11.8 2.8 14.1 2.8 38.1s-.2 26.3-2.8 38.1c-8.9 41.7-28.8 77.2-59 105.4-37.6 35.1-88.6 54.1-139.7 52.1-8.5-.3-17.1-1-19-1.4-3.2-.8-3-.9 3.5-1.6 14.8-1.5 32.4-7.4 46-15.2 27.9-16.2 47.8-40.7 57.4-70.8 20.1-62.9-12.1-130.1-73.9-154.4-15.6-6.1-24.6-7.6-45-7.6-16.1 0-19.8.3-28 2.3-34.5 8.5-62.2 29-80.1 59.1-20.5 34.5-22.2 80.6-4.5 117l2.7 5.5-3.7-4c-10.3-11.4-24.8-36-31.8-54-4.6-12-9.2-29.5-11.1-42.6-2-14-2-41.8 0-55.8 15.3-105.2 111.4-178.9 216.9-166.6zM1907.8 811c12.7 61 19.2 123.5 19.2 183.3v23.8l-6.2-7.7c-8.1-10.2-17.5-19.4-27.2-26.6-10.3-7.7-11.7-8.3-20.4-9.6-4.1-.6-7.6-1.3-7.8-1.5-.3-.2 4.5-24 10.6-52.8 12.9-60.6 26-125.8 26-129.1.1-5.1 1.9 1.3 5.8 20.2zM1767 1003c34.8 1.4 73.3 4.7 95 8.1 7.5 1.2 13.1 5 23 15.5 39.8 42.6 45.7 121.2 12.7 170.6-6.9 10.3-19.5 23-26.5 26.7-4.1 2.2-102.3 3.2-150.2 1.5-22.3-.7-65-1.6-95-1.9-30-.3-80.6-1.3-112.5-2.1-31.9-.9-83.9-1.9-115.5-2.3-55.9-.8-57.7-.8-64-3-11.5-4-18.9-8.8-28.5-18.5-13.2-13.4-21.7-29.8-26.2-50.6-2.7-12.6-2.4-36.5.5-48.3 7.6-30.5 26.5-53.3 53.4-64.5 7.2-3 9.4-3.3 80.8-10.6 40.4-4.2 85.7-8.7 100.5-10 106.6-9.9 185.6-13.2 252.5-10.6zm-520.6 166.4c7 23.3 22.2 47.5 38 60.7 3.6 3 6.6 5.7 6.6 6 0 .3-3.3.9-7.2 1.2-13.5 1-32.4 8.4-48.3 18.8-10.2 6.6-27.5 24-34.4 34.4-10.4 15.9-17.8 33.9-22.1 54-2.7 12.8-3.8 41.9-2.1 56.2 4.9 39.8 23.3 77.2 48.5 98.6l6.4 5.4-4.5 5.4c-18 21.5-30.1 49.6-34.8 80.9-1.8 12-2.1 37.8-.5 50.7 3.5 29.4 16 60.4 32.8 81l3.4 4.3-6.3 6.9c-15.4 16.9-25.4 39.2-30 66.6-1.8 10.5-1.5 37.2.5 48.5 1.5 8.8 5.8 26.6 7.2 30.4 1.2 3.2-10.6-2.1-15.7-7.1-28.8-27.8-52.9-136.2-60.4-271.3-9.6-175 10.9-342.3 50.1-407.1 9-14.8 9-14.8 33.4-22.8 25.2-8.2 34.1-11 35.5-11 .6-.1 2.3 4.1 3.9 9.3zM1675 1262c48.1 1.2 94.4 3.2 135.5 6.1 31.7 2.1 73.4 5.5 80.5 6.5 9.3 1.2 25.6 11.9 37.4 24.5 19.7 20.8 30.1 47.2 31.3 78.9 1.8 49.1-22.6 93.3-61.8 111.9-8.4 4-8.5 4-28.4 5.6-58.4 4.4-98.9 5.8-174.5 5.8-83 0-118.3-1.1-277-8.3-36-1.7-81.5-3.6-101-4.4-27-1.1-36.8-1.9-41-3.2-29.8-9-53.2-40.5-60.6-81.4-2.6-14.3-2.3-38.4.5-52 6.9-32.8 24.3-57.1 50.1-70 12.6-6.3 15.4-6.9 49-9.5 124.3-9.7 246-13.3 360-10.5zm-386 263c8.5.6 37.8 1.9 65 3 27.2 1.1 68.9 2.9 92.5 4 140.6 6.4 181.3 7.4 272.4 6.7 74.6-.6 88.9-1 137-4.3l24.4-1.7 1.8 2.4c3.4 4.3 12.8 24.2 15.9 33.6 9 27.2 11 56.4 6 85.8-5.6 32.5-21 61.8-41.3 78.3l-6.3 5.1-13.4 1.5c-44.3 5.1-82.7 7-142 7-71.9 0-104.7-1.7-258-12.9-48.9-3.5-93-6.3-122-7.5-16.6-.7-27.4-1.7-31-2.7-19.2-5.3-36.9-21.2-47.9-43.1-4.5-8.9-9.7-25-11.7-36.2-2.4-13-2.4-39 0-52 4.5-24.9 15.1-46.7 30.2-62.5 5.9-6.3 6.6-6.7 9.6-6.1 1.8.4 10.3 1.1 18.8 1.6zm-15 232.7c11.7 4.1 18.5 5.1 40.5 5.8 29.2.9 85.5 4.5 166 10.5 23.1 1.7 55.5 4 79 5.5 62.9 4.2 135.2 6 181.7 4.6 31.8-1 77.5-3.5 82-4.5 1.3-.3 2.3 1.4 4.6 7.8 6.2 17.2 9.2 35.3 9.2 55.6 0 36.5-10.8 68.8-29.7 89-10.9 11.6-12.4 12.4-28.8 14.9-21.6 3.3-52.7 6.8-77.5 8.8-28 2.2-127.9 2.6-158 .5-68-4.7-99.4-7.7-193.5-18.7-60.9-7.2-57.9-6.6-68-11.7-40.1-20.3-63.5-84.3-48.9-134.5 4.1-14.2 12.5-28.7 21.3-36.6l4.1-3.7 3.8 1.9c2 1 7.5 3.2 12.2 4.8z"/><path d="M581 553.7c-18.4 5.3-33.7 9.7-33.9 9.9-.2.2 3.8 4.3 9 9 24.5 22.5 61.9 62.2 98.4 104.4 8.8 10.1 25.1 28.9 36.3 41.8 11.2 12.9 20.2 23.6 20 23.8-.2.2-4.9-1.4-10.4-3.6-39.5-15.5-84.8-23.6-169.4-30.5-33.5-2.7-64.7-5.9-74.4-7.6-3.2-.6-6-.8-6.3-.6-.2.3-32.1 34-70.8 74.9-66.5 70.3-70.2 74.3-67.7 75 4.4 1.1 36.5 3.6 72.2 5.8 18.4 1.1 44.9 2.9 58.8 4.1 23.5 1.9 26.6 2.4 44.5 7 10.5 2.7 60.8 15.3 111.7 28 50.9 12.6 93 23.1 93.6 23.3.9.3 143.3-147.2 144.2-149.3.1-.4-9.8-7.9-22-16.6-18.9-13.4-24.8-18.3-38.2-31.4-19.3-19-39.4-40.8-63.1-68.7-9.9-11.5-28-32.7-40.1-47-26.8-31.3-54.3-60.8-56.9-61.1-1.1-.1-17.1 4.1-35.5 9.4z"/></svg>