<svg id="Capa_1" xmlns="http://www.w3.org/2000/svg" viewBox="-136 320.6 473.6 473.7"><style>.st2{fill:#ffac06}</style><path d="M100.8 320.6c130.8 0 236.8 106 236.8 236.8s-106 236.8-236.8 236.8V320.6z" fill="#5777cc" id="XMLID_1_"/><path d="M100.8 320.6C-30 320.6-136 426.7-136 557.5s106 236.8 236.8 236.8 130.8-473.7 0-473.7z" fill="#6990e8"/><path class="st2" d="M100.4 361.7l5.8 17.8h18.7l-15.1 11 5.8 17.7-15.2-11-15.1 11 5.8-17.7-15.1-11h18.7zM100.4 697.3l5.8 17.8h18.7l-15.1 11 5.8 17.8-15.2-11-15.1 11 5.8-17.8-15.1-11h18.7zM192.5 391.4l5.8 17.8H217l-15.1 11 5.8 17.8-15.2-11-15.1 11 5.8-17.8-15.1-11h18.7zM255.4 453.4l5.8 17.8h18.7l-15.2 11 5.8 17.8-15.1-11-15.1 11 5.7-17.8-15.1-11h18.7zM256.9 610.1l5.8 17.8h18.7l-15.2 11 5.8 17.7-15.1-10.9-15.1 10.9 5.7-17.7-15.1-11h18.7zM-52.2 453.4l5.7 17.8h18.7l-15.1 11 5.8 17.8-15.1-11-15.2 11 5.8-17.8-15.1-11H-58zM269.9 528.2l5.8 17.7h18.7l-15.1 11 5.8 17.8-15.2-11-15.1 11 5.8-17.8-15.1-11h18.7zM-66.5 528.2l5.7 17.7h18.7l-15.1 11 5.8 17.8-15.1-11-15.2 11 5.8-17.8-15.1-11h18.7zM-54.3 610.1l5.8 17.8h18.7l-15.1 11 5.7 17.7-15.1-10.9-15.1 10.9 5.8-17.7-15.1-11H-60zM195.3 674.7l5.7 17.8h18.7l-15.1 11 5.8 17.8-15.1-11-15.2 11 5.8-17.8-15.1-11h18.7zM11.3 391.4l5.8 17.8h18.7l-15.1 11 5.7 17.8-15.1-11-15.1 11L2 420.2l-15.2-11H5.5zM4.5 673.6l5.8 17.8H29l-15.2 11 5.8 17.8-15.1-11-15.1 11 5.7-17.8-15.1-11h18.7z"/><g><path d="M456.5 8081.8c-115-9.8-225.2-51.8-314.1-120-118.6-90.9-191.6-223.6-210-381.6-5-42.7-3.4-130 3.2-172.5 24.5-158.6 92.9-296.1 224.3-450.2 32-38 130.4-136.3 178.4-178.6 70.7-62.5 100-86.4 309.1-252.9 66.8-53.2 123.9-100.9 162.9-135.9 41.4-37.3 103.9-101.4 127.7-131.1 22.5-28 50.2-69.8 61.6-92.7 4.3-8.9 8.6-16.1 9.3-16.1.9-.2 2 2 3 4.8 2 8.2 32.3 57.7 49.1 80.4 24.3 32.7 53.2 64.8 96.8 107.7 64.3 63.4 110.7 102.5 278.2 235.4 191.6 152 266.3 216.8 353.4 305.6 173.8 177.7 263.4 338.1 292.7 524.7 6.6 42.5 7.3 150.9.9 190.9-20.2 128.4-70.2 230-155 314.7-89.3 89.5-205.4 145.9-337.5 163.8-38.6 5.5-111.8 5.2-148.8 0-161.6-23.2-289.3-105.4-368.8-237.7-23.9-39.5-46.4-90.4-57.7-131.1-2.7-10.5-5.7-18.9-6.4-18.9s-3.6 8.4-6.4 18.9c-26.6 94.3-85.7 188.6-157.3 250-75.4 65-164.3 104.3-267.9 118.6-31.2 4.5-91.2 6.1-120.7 3.8z" fill="#fff" transform="matrix(.1 0 0 -.1 0 1280)"/></g></svg>