<?xml version="1.0" standalone="no"?>
<!DOCTYPE svg PUBLIC "-//W3C//DTD SVG 20010904//EN"
 "http://www.w3.org/TR/2001/REC-SVG-20010904/DTD/svg10.dtd">
<svg version="1.0" xmlns="http://www.w3.org/2000/svg"
 width="640.000000pt" height="640.000000pt" viewBox="0 0 640.000000 640.000000"
 preserveAspectRatio="xMidYMid meet">
<metadata>
Created by potrace 1.11, written by Peter Selinger 2001-2013
</metadata>
<g transform="translate(0.000000,640.000000) scale(0.100000,-0.100000)"
fill="#000000" stroke="none">
<path d="M2979 6396 c-2 -2 -44 -7 -94 -10 -49 -4 -97 -9 -105 -11 -8 -3 -33
-7 -55 -9 -174 -22 -541 -118 -670 -176 -11 -5 -74 -32 -140 -60 -225 -94
-470 -241 -695 -416 -150 -116 -414 -378 -510 -504 -14 -18 -30 -38 -35 -44
-21 -22 -113 -153 -167 -236 -89 -136 -168 -284 -251 -470 -68 -154 -142 -384
-186 -585 -22 -99 -25 -116 -40 -225 -6 -41 -13 -95 -17 -120 -10 -69 -13
-569 -4 -625 4 -28 11 -79 15 -115 3 -36 8 -72 10 -80 2 -8 7 -35 10 -60 23
-158 114 -487 174 -625 5 -11 16 -36 24 -55 30 -71 98 -220 121 -262 49 -92
80 -145 107 -186 16 -24 29 -45 29 -47 0 -4 101 -150 149 -215 24 -33 89 -112
156 -190 74 -86 289 -292 365 -351 24 -18 51 -40 58 -47 71 -66 367 -254 526
-334 169 -85 476 -206 568 -223 12 -3 35 -9 52 -15 17 -5 51 -14 76 -19 25 -5
88 -18 140 -29 52 -11 122 -23 155 -27 32 -4 68 -9 80 -12 11 -3 160 -7 330
-9 317 -3 437 5 620 42 44 9 89 17 100 19 11 1 66 14 123 29 434 112 839 312
1186 586 198 157 415 377 566 575 278 363 477 791 578 1240 12 50 23 106 26
125 3 19 7 44 10 55 2 11 7 43 10 70 4 28 10 66 13 85 10 59 12 641 2 710 -30
212 -44 291 -79 430 -34 136 -103 357 -130 415 -5 11 -32 72 -60 135 -122 275
-316 575 -516 800 -37 42 -227 233 -270 271 -117 105 -436 339 -463 339 -5 0
-11 3 -13 8 -8 19 -302 168 -447 227 -146 59 -338 122 -426 141 -25 5 -58 12
-87 19 -58 14 -170 34 -243 44 -44 6 -100 13 -125 17 -51 7 -544 16 -551 10z"/>
</g>
</svg>
