<?xml version="1.0" encoding="UTF-8" standalone="no"?>
<!-- Created with Inkscape (http://www.inkscape.org/) -->

<svg
   xmlns:svg="http://www.w3.org/2000/svg"
   xmlns="http://www.w3.org/2000/svg"
   xmlns:xlink="http://www.w3.org/1999/xlink"
   version="1.0"
   width="759.99994"
   height="538.42108"
   viewBox="0 0 759.9999 538.42107"
   id="Layer_1"
   xml:space="preserve"><defs
     id="defs136">
	
	

		
		
		
		
		
		
		
	
		
	
			
		
			
			
			
			
			
			
			
			
		
			
			
			
			
			
			
			
			
		
			
			
			
			
			
			
			
			
		
			
			
			
			
			
			
			
			
		
			
			
			
			
			
			
			
			
		
			
			
			
			
			
			
			
			
		
				
				
				
				
				
				
				
			</defs><g
     transform="translate(-2.15e-5,0)"
     id="g2870"><rect
       width="759.99994"
       height="538.42108"
       x="0"
       y="0"
       id="rect24"
       style="fill:#002868" /><polygon
       points="144.008,91.491 140.364,94.139 141.755,98.424 138.111,95.775 134.467,98.424 135.859,94.139 132.215,91.491 136.719,91.491 138.111,87.207 139.503,91.491 "
       transform="matrix(5.4911952,0,0,5.4911952,-710.91309,-23.09698)"
       id="polygon3377"
       style="fill:#ffffff" /><use
       transform="translate(94.736825,-0.52631557)"
       id="use3397"
       x="0"
       y="0"
       width="144.39999"
       height="102.3"
       xlink:href="#polygon3377" /><use
       transform="translate(189.47366,-0.52631557)"
       id="use3399"
       x="0"
       y="0"
       width="144.39999"
       height="102.3"
       xlink:href="#polygon3377" /><use
       transform="translate(284.2105,-0.52631557)"
       id="use3401"
       x="0"
       y="0"
       width="144.39999"
       height="102.3"
       xlink:href="#polygon3377" /><use
       transform="translate(378.94734,-0.52631557)"
       id="use3403"
       x="0"
       y="0"
       width="144.39999"
       height="102.3"
       xlink:href="#polygon3377" /><use
       transform="translate(473.68418,-0.52631557)"
       id="use3405"
       x="0"
       y="0"
       width="144.39999"
       height="102.3"
       xlink:href="#polygon3377" /><use
       transform="translate(568.42099,-0.52631557)"
       id="use3407"
       x="0"
       y="0"
       width="144.39999"
       height="102.3"
       xlink:href="#polygon3377" /><use
       transform="translate(663.15783,-0.52631557)"
       id="use3409"
       x="0"
       y="0"
       width="144.39999"
       height="102.3"
       xlink:href="#polygon3377" /><use
       transform="translate(0,-87.105262)"
       id="use3459"
       x="0"
       y="0"
       width="144.39999"
       height="102.3"
       xlink:href="#polygon3377" /><use
       transform="translate(0,-174.21052)"
       id="use3461"
       x="0"
       y="0"
       width="144.39999"
       height="102.3"
       xlink:href="#polygon3377" /><use
       transform="translate(0,-261.31578)"
       id="use3463"
       x="0"
       y="0"
       width="144.39999"
       height="102.3"
       xlink:href="#polygon3377" /><use
       transform="translate(0,-348.42104)"
       id="use3465"
       x="0"
       y="0"
       width="144.39999"
       height="102.3"
       xlink:href="#polygon3377" /><use
       transform="translate(0,-435.5263)"
       id="use3467"
       x="0"
       y="0"
       width="144.39999"
       height="102.3"
       xlink:href="#polygon3377" /><use
       transform="translate(568.42099,0)"
       id="use3471"
       x="0"
       y="0"
       width="144.39999"
       height="102.3"
       xlink:href="#use3459" /><use
       transform="translate(-94.736814,0)"
       id="use3473"
       x="0"
       y="0"
       width="144.39999"
       height="102.3"
       xlink:href="#use3471" /><use
       transform="translate(-94.73684,0)"
       id="use3475"
       x="0"
       y="0"
       width="144.39999"
       height="102.3"
       xlink:href="#use3473" /><use
       transform="translate(-94.736835,0)"
       id="use3477"
       x="0"
       y="0"
       width="144.39999"
       height="102.3"
       xlink:href="#use3475" /><use
       transform="translate(-94.73684,0)"
       id="use3479"
       x="0"
       y="0"
       width="144.39999"
       height="102.3"
       xlink:href="#use3477" /><use
       transform="translate(-94.736835,0)"
       id="use3481"
       x="0"
       y="0"
       width="144.39999"
       height="102.3"
       xlink:href="#use3479" /><use
       transform="translate(663.15783,0)"
       id="use3483"
       x="0"
       y="0"
       width="144.39999"
       height="102.3"
       xlink:href="#use3459" /><use
       transform="translate(663.15783,0)"
       id="use3485"
       x="0"
       y="0"
       width="144.39999"
       height="102.3"
       xlink:href="#use3461" /><use
       transform="translate(-94.73684,0)"
       id="use3487"
       x="0"
       y="0"
       width="144.39999"
       height="102.3"
       xlink:href="#use3485" /><use
       transform="translate(-94.736814,0)"
       id="use3489"
       x="0"
       y="0"
       width="144.39999"
       height="102.3"
       xlink:href="#use3487" /><use
       transform="translate(-94.73684,0)"
       id="use3491"
       x="0"
       y="0"
       width="144.39999"
       height="102.3"
       xlink:href="#use3489" /><use
       transform="translate(-94.736835,0)"
       id="use3493"
       x="0"
       y="0"
       width="144.39999"
       height="102.3"
       xlink:href="#use3491" /><use
       transform="translate(-94.73684,0)"
       id="use3495"
       x="0"
       y="0"
       width="144.39999"
       height="102.3"
       xlink:href="#use3493" /><use
       transform="translate(-94.736835,0)"
       id="use3497"
       x="0"
       y="0"
       width="144.39999"
       height="102.3"
       xlink:href="#use3495" /><use
       transform="translate(663.15783,0)"
       id="use3499"
       x="0"
       y="0"
       width="144.39999"
       height="102.3"
       xlink:href="#use3463" /><use
       transform="translate(-94.73684,0)"
       id="use3501"
       x="0"
       y="0"
       width="144.39999"
       height="102.3"
       xlink:href="#use3499" /><use
       transform="translate(-94.736814,0)"
       id="use3503"
       x="0"
       y="0"
       width="144.39999"
       height="102.3"
       xlink:href="#use3501" /><use
       transform="translate(-94.73684,0)"
       id="use3505"
       x="0"
       y="0"
       width="144.39999"
       height="102.3"
       xlink:href="#use3503" /><use
       transform="translate(-94.736835,0)"
       id="use3507"
       x="0"
       y="0"
       width="144.39999"
       height="102.3"
       xlink:href="#use3505" /><use
       transform="translate(-94.73684,0)"
       id="use3509"
       x="0"
       y="0"
       width="144.39999"
       height="102.3"
       xlink:href="#use3507" /><use
       transform="translate(-94.736835,0)"
       id="use3511"
       x="0"
       y="0"
       width="144.39999"
       height="102.3"
       xlink:href="#use3509" /><use
       transform="translate(284.2105,0)"
       id="use3513"
       x="0"
       y="0"
       width="144.39999"
       height="102.3"
       xlink:href="#use3465" /><use
       transform="translate(-94.73684,0)"
       id="use3515"
       x="0"
       y="0"
       width="144.39999"
       height="102.3"
       xlink:href="#use3513" /><use
       transform="translate(-94.736835,0)"
       id="use3517"
       x="0"
       y="0"
       width="144.39999"
       height="102.3"
       xlink:href="#use3515" /><use
       transform="translate(663.15783,0)"
       id="use3519"
       x="0"
       y="0"
       width="144.39999"
       height="102.3"
       xlink:href="#use3465" /><use
       transform="translate(-94.73684,0)"
       id="use3521"
       x="0"
       y="0"
       width="144.39999"
       height="102.3"
       xlink:href="#use3519" /><use
       transform="translate(-94.736814,0)"
       id="use3523"
       x="0"
       y="0"
       width="144.39999"
       height="102.3"
       xlink:href="#use3521" /><use
       transform="translate(-94.73684,0)"
       id="use3525"
       x="0"
       y="0"
       width="144.39999"
       height="102.3"
       xlink:href="#use3523" /><use
       transform="translate(663.15783,0)"
       id="use3527"
       x="0"
       y="0"
       width="144.39999"
       height="102.3"
       xlink:href="#use3467" /><use
       transform="translate(-94.73684,0)"
       id="use3529"
       x="0"
       y="0"
       width="144.39999"
       height="102.3"
       xlink:href="#use3527" /><use
       transform="translate(-94.736814,0)"
       id="use3531"
       x="0"
       y="0"
       width="144.39999"
       height="102.3"
       xlink:href="#use3529" /><use
       transform="translate(-94.73684,0)"
       id="use3533"
       x="0"
       y="0"
       width="144.39999"
       height="102.3"
       xlink:href="#use3531" /><use
       transform="translate(-94.736835,0)"
       id="use3535"
       x="0"
       y="0"
       width="144.39999"
       height="102.3"
       xlink:href="#use3533" /><use
       transform="translate(-94.73684,0)"
       id="use3537"
       x="0"
       y="0"
       width="144.39999"
       height="102.3"
       xlink:href="#use3535" /><use
       transform="translate(-94.736835,0)"
       id="use3539"
       x="0"
       y="0"
       width="144.39999"
       height="102.3"
       xlink:href="#use3537" /></g></svg>