<?xml version="1.0" encoding="UTF-8"?>
<svg width="150px" height="150px" viewBox="0 0 150 150" version="1.1" xmlns="http://www.w3.org/2000/svg" xmlns:xlink="http://www.w3.org/1999/xlink">
    <!-- Generator: Sketch 50 (54983) - http://www.bohemiancoding.com/sketch -->
    <title>1024x1024 copy 2@1x</title>
    <desc>Created with Sketch.</desc>
    <defs>
        <linearGradient x1="49.9956836%" y1="-0.000878906252%" x2="49.9956836%" y2="98.2707325%" id="linearGradient-1">
            <stop stop-color="#FF4C4C" offset="0%"></stop>
            <stop stop-color="#C60949" offset="100%"></stop>
        </linearGradient>
    </defs>
    <g id="1024x1024-copy-2" stroke="none" stroke-width="1" fill="none" fill-rule="evenodd">
        <g id="Zomato-Logo" fill-rule="nonzero">
            <rect id="Rectangle-Copy-10_7_" fill="url(#linearGradient-1)" x="0" y="0" width="150" height="150"></rect>
            <g id="Group" transform="translate(10.546875, 58.740234)" fill="#FFFFFF">
                <path d="M19.6904297,7.09844545 L19.5776367,10.8810638 L9.86132812,21.6011651 C13.921875,21.6011651 16.5,21.5528763 17.9824219,21.4723951 C17.5473633,23.5005223 17.2089844,25.1745322 16.8544922,27.6533544 C14.9047852,27.4923919 11.859375,27.4441032 8.81396484,27.4441032 C5.4140625,27.4441032 2.44921875,27.4923919 0.0805664062,27.6533544 L0.161132812,23.8385436 L9.87744141,13.166731 C5.62353516,13.166731 4.06054687,13.2150198 2.30419922,13.2472123 C2.69091797,11.3317587 2.96484375,9.22315021 3.23876953,7.09844545 C6.31640625,7.22721543 7.52490234,7.25940793 11.5532227,7.25940793 C15.2431641,7.25940793 17.3540039,7.21111919 19.6904297,7.09844545 Z" id="Shape"></path>
                <path d="M30.7441406,5.97170808 C24.4277344,5.97170808 19.59375,11.7019724 19.59375,18.5589742 C19.59375,23.7097736 22.5263672,27.6533544 28.2143555,27.6533544 C34.5791016,27.6533544 39.3647461,21.92309 39.3647461,15.0338958 C39.3647461,9.91528888 36.5126953,5.97170808 30.7441406,5.97170808 Z M28.8266602,22.1323413 C27.4248047,22.1323413 26.6030273,20.8446414 26.6030273,18.3175304 C26.6030273,14.5349121 28.1176758,11.5088175 30.0029297,11.5088175 C31.3725586,11.5088175 32.1943359,12.7482286 32.1943359,15.3236283 C32.1782227,19.0579578 30.6958008,22.1323413 28.8266602,22.1323413 Z" id="Shape"></path>
                <path d="M120.092285,5.68197561 C113.695312,5.68197561 108.780762,11.4927212 108.780762,18.4302042 C108.780762,23.6453886 111.745605,27.6372581 117.51416,27.6372581 C123.959473,27.6372581 128.825684,21.8265125 128.825684,14.8407408 C128.825684,9.68994141 125.941406,5.68197561 120.092285,5.68197561 Z M118.045898,22.116245 C116.644043,22.116245 115.822266,20.8285451 115.822266,18.3014342 C115.822266,14.5188159 117.336914,11.4927212 119.222168,11.4927212 C120.591797,11.4927212 121.413574,12.7321323 121.413574,15.307532 C121.397461,19.0418616 119.915039,22.116245 118.045898,22.116245 Z" id="Shape"></path>
                <path d="M72.1713867,13.4403672 C72.6708984,9.91528888 72.4130859,6.71213549 68.5458984,6.71213549 C65.7421875,6.71213549 62.6967773,9.12657272 60.5537109,13.1506348 C61.0209961,9.83480764 60.7470703,6.71213549 56.9282227,6.71213549 C54.0439453,6.71213549 50.9179687,9.23924646 48.7749023,13.4403672 C49.3227539,10.704005 49.2099609,7.58133289 49.0488281,6.92138672 C46.8251953,7.29160043 44.8754883,7.50085165 42.1362305,7.58133289 C42.2167969,9.49678643 42.1040039,11.9756086 41.7495117,14.3417571 L40.847168,20.5710052 C40.4926758,23.0176349 40.105957,25.8505746 39.7192383,27.6372581 L46.9702148,27.6372581 C47.0024414,26.5588095 47.2763672,24.8526072 47.4697266,23.3556561 L48.0981445,19.0740541 C48.5976562,16.2894032 50.7890625,13.0057685 52.4648437,13.0057685 C53.4477539,13.0057685 53.3994141,13.9554472 53.1254883,15.7421307 L52.4165039,20.5549089 C52.0620117,23.0015387 51.675293,25.8344783 51.2885742,27.6211619 L58.6201172,27.6211619 C58.6523438,26.5427133 58.894043,24.8365109 59.0874023,23.3395599 L59.7158203,19.0579578 C60.215332,16.2733069 62.4067383,12.9896723 64.0825195,12.9896723 C65.0654297,12.9896723 65.0170898,13.9071584 64.855957,15.1465695 L63.0996094,27.6050656 L69.7866211,27.6050656 L72.1713867,13.4403672 Z" id="Shape"></path>
                <path d="M107.217773,21.1343739 L106.444336,26.0276333 C105.23584,26.6875795 102.97998,27.6533544 100.353516,27.6533544 C95.90625,27.6533544 95.0039062,25.2389172 95.7128906,20.1364065 L96.8408203,11.9112237 L94.6494141,11.9112237 L95.2617188,6.58336551 L97.6464844,6.47069177 L98.5488281,2.60759221 L105.300293,0.0321924964 L104.446289,6.47069177 L109.086914,6.47069177 C108.925781,7.13063795 108.37793,10.7844863 108.23291,11.9112237 L103.705078,11.9112237 L102.689941,19.5086528 C102.416016,21.4562988 102.577148,22.1645337 103.898438,22.1645337 C104.881348,22.1645337 106.31543,21.5850688 107.217773,21.1343739 Z" id="Shape"></path>
                <path d="M81.6137695,23.7741586 C84.0629883,23.4683299 85.7548828,21.0699889 86.1577148,18.6716479 L86.222168,18.027798 C85.1586914,17.7863542 83.644043,17.6092955 82.1616211,17.7863542 C80.7597656,17.963413 79.5834961,18.5589742 78.9550781,19.4120753 C78.487793,20.0237327 78.2460938,20.7641602 78.3427734,21.6494538 C78.5200195,22.9693462 79.9541016,23.9834098 81.6137695,23.7741586 Z M79.5351563,27.5728731 C76.0708008,28.0074718 73.7827148,26.6070982 73.105957,23.4361374 C72.6708984,21.4402026 73.2670898,19.1706316 74.3144531,17.8024505 C75.7163086,16.0318632 77.9882813,14.8890296 80.7758789,14.5349121 C83.015625,14.2612759 84.9008789,14.3900459 86.6572266,14.7280671 L86.737793,14.4222384 C86.7861328,13.9393509 86.8344727,13.4403672 86.7700195,12.8609023 C86.5927734,11.3639512 85.4165039,10.4625613 82.5322266,10.8166788 C80.5825195,11.0581225 78.7294922,11.7824537 77.2792969,12.5872661 L75.8774414,8.28956781 C77.8271484,7.14673419 80.2924805,6.29363304 83.1123047,5.93951558 C88.4941406,5.26347316 92.2646484,7.01796421 92.7480469,11.0098338 C92.8769531,12.0721861 92.8930664,13.1989235 92.7641602,14.2290834 C92.0712891,19.1706316 91.6362305,22.8888649 91.4428711,25.3837834 C91.4106445,25.7700933 91.4106445,26.4300395 91.4428711,27.3797182 L84.7719727,27.3797182 C84.9169922,26.9934082 85.0458984,26.462232 85.1586914,25.8022858 C85.2392578,25.3676871 85.2875977,24.8204147 85.3198242,24.1443723 C83.8857422,26.1081146 81.9521484,27.2670444 79.5351563,27.5728731 Z" id="a-copy-7_3_"></path>
            </g>
        </g>
    </g>
</svg>