<?xml version="1.0" ?><svg style="enable-background:new 0 0 48 48.00004;" version="1.1" viewBox="0 0 48 48.00004" xml:space="preserve" xmlns="http://www.w3.org/2000/svg" xmlns:xlink="http://www.w3.org/1999/xlink"><g id="Icons"><g id="Icons_4_"><g><path d="M24.00505,8.65502c-8.4801,0-15.3501,6.87-15.3501,15.34c0,8.48,6.87,15.35,15.3501,15.35     c8.47,0,15.34-6.87,15.34-15.35C39.34495,15.52502,32.47505,8.65502,24.00505,8.65502z M29.82495,17.29502c0,0-0.5-0.02-2.2199,0     c-1.68,0.02-1.7001,1.28-1.7001,1.34l-0.02,3.19l3.94,0.08l-0.5799,4.07h-3.3401l-0.0999,8.61h-4.05l-0.1201-8.59l-3.55-0.02     l0.0901-4.15h3.5v-3c0.01-0.32,0.0399-0.64,0.08-0.96c0.0899-0.7,0.2799-1.4,0.61-2.03c0.2899-0.54,0.69-1.02,1.18-1.39     c0.5-0.38,1.0899-0.64,1.7-0.8c0.43-0.12,0.87-0.2,1.31-0.21c0.57-0.02,2.81,0.05,3.37,0.06L29.82495,17.29502z" style="fill:#3B5998;"/></g></g></g></svg>