<?xml version="1.0" ?><svg style="enable-background:new 0 0 512 512;" version="1.1" viewBox="0 0 512 512" xml:space="preserve" xmlns="http://www.w3.org/2000/svg" xmlns:xlink="http://www.w3.org/1999/xlink"><style type="text/css">
	.st0{fill:#3399CC;}
	.st1{fill:#FFFFFF;}
</style><g id="Edges"/><g id="Background"><path class="st0" d="M492.9,431.2c0,34.2-27.7,61.9-61.9,61.9H81.3c-34.2,0-61.9-27.7-61.9-61.9V81.5c0-34.2,27.7-61.9,61.9-61.9   H431c34.2,0,61.9,27.7,61.9,61.9V431.2z"/></g><g id="Symbol"><path class="st1" d="M342.3,114.9H168.8c-30.2,0-54.7,24.5-54.7,54.7v57.7v115.8c0,30.1,24.5,54.7,54.7,54.7h173.6   c30.1,0,54.7-24.5,54.7-54.7V227.3v-57.8C397,139.4,372.5,114.9,342.3,114.9z M358,147.5l6.3,0v6.2v41.7l-47.8,0.2l-0.2-48   L358,147.5z M215.2,227.3c9.1-12.5,23.8-20.8,40.4-20.8s31.3,8.2,40.4,20.8c5.9,8.2,9.4,18.2,9.4,29c0,27.5-22.4,49.8-49.8,49.8   c-27.5,0-49.8-22.3-49.8-49.8C205.8,245.5,209.3,235.5,215.2,227.3z M369.5,343.1c0,15-12.2,27.1-27.1,27.1H168.8   c-15,0-27.1-12.1-27.1-27.1V227.3h42.2c-3.6,9-5.7,18.8-5.7,29c0,42.6,34.7,77.4,77.4,77.4c42.7,0,77.4-34.7,77.4-77.4   c0-10.3-2.1-20.1-5.7-29h42.2L369.5,343.1L369.5,343.1z"/></g></svg>