<?xml version="1.0" ?><svg style="enable-background:new 0 0 48 48;" version="1.1" viewBox="0 0 48 48" xml:space="preserve" xmlns="http://www.w3.org/2000/svg" xmlns:xlink="http://www.w3.org/1999/xlink"><g id="Icons"><g id="Icons_11_"><g><path d="M23.878,16.04808c-1.4373-3.9822,5.0321-7.7681,7.6977-4.1337c0,0,1.0333-0.0371,2.919-1.0524     c0,0-0.4497,1.4358-1.9002,2.386c0,0,1.1024-0.0071,2.4369-0.6019c0,0-0.8414,1.3635-2.1468,2.2774     c0,0-0.0291,2.0452-0.3337,3.3217s-1.32,4.8303-4.3661,7.3253c-3.0461,2.4949-6.7595,3.0461-8.8628,2.901     c-2.1033-0.145-4.6852-0.9428-6.3534-1.9727c0,0,3.8149,0.4062,6.629-1.9147c0,0-2.8431,0.1305-4.1921-3.1477     c0,0,0.9719,0.1741,2.0163-0.116c0,0-3.5828-0.6528-3.6264-4.5112c0,0,1.175,0.5802,2.0453,0.5222     c0,0-3.4233-2.611-1.3345-5.9907C14.5062,11.34068,17.9322,15.88168,23.878,16.04808z" style="fill:#4AA0EC;"/><g><path d="M18.3336,37.11978c-0.1835,0.1595-0.3837,0.2797-0.6119,0.3499      c-1.0457,0.3213-2.1224-0.4568-2.1402-1.5508c-0.0067-0.4076-0.0042-0.8155-0.0002-1.2232      c0.0038-0.3892,0.323-0.6398,0.6965-0.553c0.2349,0.0546,0.4094,0.2731,0.4121,0.5206c0.0044,0.4045,0.0059,0.809,0.0103,1.2135      c0.0034,0.3159,0.2676,0.5562,0.5829,0.5327c0.2652-0.0198,0.4883-0.2584,0.4917-0.5368      c0.0049-0.3896,0.0011-0.7792,0.0044-1.1688c0.0036-0.4324,0.4237-0.7074,0.8037-0.5245      c0.2149,0.1034,0.3122,0.2887,0.3151,0.5203c0.0049,0.3805-0.0009,0.7611,0.0021,1.1417      c0.0027,0.3492,0.267,0.5971,0.5981,0.5672c0.2818-0.0255,0.4833-0.2682,0.4853-0.5909      c0.0022-0.3654-0.0008-0.7309,0.001-1.0964c0.0012-0.2425,0.0942-0.4373,0.3206-0.5442c0.3553-0.1679,0.7686,0.0686,0.785,0.464      c0.0179,0.4311,0.0067,0.8635,0.0035,1.2952c-0.0007,0.0959-0.0139,0.193-0.0331,0.2871      c-0.1407,0.6893-0.7029,1.2102-1.4016,1.3106c-0.4686,0.0673-0.8752-0.0719-1.2433-0.3526      C18.3896,37.16168,18.3634,37.14218,18.3336,37.11978z" style="fill:#4AA0EC;"/><path d="M13.032,34.21208c0.0498,0,0.0855,0,0.1213,0c0.5104,0,1.0208-0.0003,1.5312,0.0001      c0.3127,0.0002,0.5532,0.2222,0.5703,0.5254c0.0174,0.3071-0.2017,0.5572-0.5174,0.5861      c-0.0839,0.0077-0.1688,0.0059-0.2533,0.006c-0.447,0.0005-0.894,0.0002-1.341,0.0002c-0.0354,0-0.0707,0-0.1319,0      c0.0232,0.2209,0.0271,0.4332,0.0717,0.6365c0.0471,0.2147,0.2656,0.36,0.5178,0.3649      c0.3954,0.0077,0.7912,0.0031,1.1868,0.0046c0.3111,0.0012,0.5501,0.214,0.592,0.5254      c0.0407,0.3019-0.1478,0.5831-0.4434,0.6584c-0.0464,0.0118-0.0953,0.0194-0.143,0.019      c-0.4498-0.0036-0.9002,0.0043-1.3491-0.0176c-0.6037-0.0296-1.0398-0.3514-1.3534-0.8495      c-0.167-0.2652-0.2473-0.5583-0.2458-0.8759c0.0042-0.8305,0.0014-1.6611,0.0014-2.4916c0-0.2792,0.2353-0.5332,0.5165-0.5576      c0.3833-0.0333,0.6677,0.226,0.6691,0.6112c0.0009,0.2474,0.0002,0.4948,0.0002,0.7422      C13.032,34.13258,13.032,34.16518,13.032,34.21208z" style="fill:#4AA0EC;"/><path d="M30.4569,36.15758c-0.0071,0.1435,0.0587,0.2251,0.1692,0.2845      c0.1991,0.107,0.415,0.1181,0.6329,0.12c0.3199,0.0028,0.6398,0.0028,0.9597,0.007c0.2063,0.0027,0.3875,0.1315,0.4539,0.3162      c0.067,0.1863,0.0147,0.4038-0.1292,0.5315c-0.0971,0.0863-0.2144,0.1234-0.3413,0.1234      c-0.4528,0.0001-0.9062,0.0112-1.3583-0.008c-0.8781-0.0374-1.593-0.7778-1.6176-1.6561      c-0.009-0.3211,0.0322-0.6334,0.1877-0.9201c0.2122-0.3912,0.5319-0.6532,0.9661-0.7589      c0.4699-0.1144,0.9427-0.1165,1.3985,0.0562c0.5722,0.2166,0.9424,0.6184,1.0327,1.2398      c0.0174,0.1195,0.0052,0.248-0.0182,0.3676c-0.0339,0.1735-0.187,0.279-0.3899,0.2929      c-0.0541,0.0037-0.1086,0.0038-0.1629,0.0038c-0.5614,0.0003-1.1228,0.0002-1.6842,0.0002      C30.5239,36.15758,30.4918,36.15758,30.4569,36.15758z M31.6238,35.37398c0.0069-0.1153-0.0458-0.1978-0.136-0.2496      c-0.2897-0.1664-0.5836-0.1674-0.8746-0.0018c-0.0943,0.0537-0.143,0.1381-0.1435,0.2514      C30.8578,35.37398,31.2393,35.37398,31.6238,35.37398z" style="fill:#4AA0EC;"/><path d="M24.3006,34.21208c0.1255,0,0.2395,0,0.3535,0c0.2174,0,0.4348-0.0005,0.6522,0.0001      c0.3285,0.0009,0.5692,0.2327,0.5717,0.5497c0.0025,0.3226-0.2358,0.5641-0.5657,0.5673      c-0.314,0.0031-0.6281,0.0007-0.9421,0.0009c-0.0146,0-0.0293,0.0016-0.0549,0.0031c-0.0068,0.2037-0.0362,0.4049,0.0168,0.6032      c0.0599,0.2245,0.2719,0.3843,0.5284,0.3952c0.1929,0.0082,0.3864,0.0012,0.5796,0.0047      c0.2767,0.0052,0.5256,0.2266,0.5634,0.4973c0.0426,0.3059-0.1152,0.5895-0.3865,0.6679      c-0.1082,0.0313-0.2257,0.0353-0.3396,0.0418c-0.373,0.0216-0.7455,0.0141-1.0927-0.144      c-0.6241-0.2842-0.9777-0.7727-1.062-1.4537c-0.0111-0.0894-0.0139-0.1803-0.014-0.2706      c-0.0011-0.776-0.0023-1.552,0.0005-2.3279c0.0008-0.234,0.0958-0.4248,0.3094-0.5348      c0.2087-0.1074,0.4203-0.0999,0.6184,0.0318c0.1678,0.1115,0.252,0.2754,0.2572,0.4744      c0.0068,0.2564,0.0047,0.5131,0.0064,0.7697C24.3008,34.12418,24.3006,34.16018,24.3006,34.21208z" style="fill:#4AA0EC;"/><path d="M27.4035,35.32988c0,0.1744-0.0113,0.3348,0.0025,0.4931      c0.0249,0.2868,0.2543,0.4949,0.5538,0.5085c0.1899,0.0086,0.3804,0.0016,0.5705,0.0047      c0.2986,0.0049,0.5602,0.2501,0.5742,0.5351c0.0173,0.353-0.1754,0.621-0.4856,0.6548c-0.1825,0.02-0.3675,0.0233-0.5513,0.0228      c-0.4602-0.0014-0.8841-0.1167-1.236-0.4296c-0.4125-0.3669-0.6257-0.8258-0.6251-1.3811      c0.0007-0.797-0.0011-1.5941,0.0009-2.3911c0.0006-0.2349,0.0954-0.4248,0.3087-0.535c0.2055-0.106,0.4151-0.0972,0.6115,0.0279      c0.1926,0.1226,0.2695,0.31,0.2711,0.5316c0.0017,0.2476,0.0039,0.4953-0.0016,0.7427      c-0.0018,0.0824,0.0248,0.1007,0.1029,0.0996c0.3048-0.0044,0.6098-0.0023,0.9148-0.0017      c0.3114,0.0007,0.5515,0.2284,0.5623,0.532c0.0111,0.3108-0.2019,0.5613-0.5138,0.5761      c-0.3131,0.015-0.6272,0.0074-0.9408,0.0096C27.4868,35.33018,27.4512,35.32988,27.4035,35.32988z" style="fill:#4AA0EC;"/><path d="M34.2523,36.42318c-0.0001,0.1842,0.0046,0.3684-0.0011,0.5524      c-0.0137,0.4486-0.4635,0.7104-0.8361,0.4862c-0.1722-0.1036-0.2651-0.2605-0.2679-0.4641      c-0.0025-0.178-0.0043-0.3563,0.0003-0.5342c0.0078-0.3001-0.0013-0.6029,0.0363-0.8996      c0.0845-0.6649,0.6498-1.2371,1.3141-1.3264c0.2881-0.0388,0.5837-0.0222,0.8759-0.0293      c0.0722-0.0018,0.1447,0.0033,0.217,0.0037c0.3168,0.0019,0.5621,0.2405,0.5644,0.5497      c0.0023,0.3175-0.2347,0.5622-0.5564,0.5675c-0.2533,0.0041-0.5067-0.0007-0.7601,0.0013      c-0.3,0.0023-0.5115,0.1461-0.5628,0.3981c-0.0243,0.1195-0.019,0.2455-0.0228,0.3687      C34.2497,36.20578,34.2524,36.31448,34.2523,36.42318z" style="fill:#4AA0EC;"/><path d="M21.51,35.83238c0-0.3624-0.0001-0.7247,0-1.087c0-0.339,0.2497-0.6126,0.5664-0.6208      c0.3496-0.0091,0.6201,0.2407,0.6234,0.5997c0.0068,0.7397,0.0059,1.4794,0.0003,2.2191      c-0.0025,0.3312-0.238,0.571-0.5629,0.5966c-0.292,0.0231-0.568-0.1872-0.6154-0.4857      c-0.0211-0.1328-0.0108-0.2709-0.0114-0.4067C21.509,36.37588,21.51,36.10408,21.51,35.83238z" style="fill:#4AA0EC;"/><path d="M22.1031,32.61698c0.3347,0.001,0.5991,0.2645,0.5989,0.5967      c-0.0003,0.3413-0.2674,0.6041-0.6125,0.6027c-0.3265-0.0015-0.5805-0.2661-0.5792-0.6036      C21.5116,32.86778,21.7621,32.61608,22.1031,32.61698z" style="fill:#4AA0EC;"/></g></g></g></g></svg>