<?xml version="1.0" encoding="utf-8"?>
<!-- Generator: Adobe Illustrator 22.0.1, SVG Export Plug-In . SVG Version: 6.00 Build 0)  -->
<svg version="1.1" id="Vrstva_1" xmlns="http://www.w3.org/2000/svg" xmlns:xlink="http://www.w3.org/1999/xlink" x="0px" y="0px"
	 viewBox="0 0 120 120" style="enable-background:new 0 0 120 120;" xml:space="preserve">
<style type="text/css">
	.st0{fill:#FFFFFF;}
</style>
<path class="st0" d="M8.1,40.8c0.1-0.4,0.2-0.8,0.3-1.1c0.8-2.5,3.1-4.3,5.8-4.3c6.1,0,12.3,0,18.4,0c0.5,0,1.1,0,1.6-0.1
	c2.3-0.5,3.7-2.4,3.8-4.9c0-1.1-0.1-2.1,0.1-3.2c0.4-2.6,2-4.4,4.3-5.5c1.4-0.7,3-1,4.6-1.1c3.1,0,6.3,0,9.4,0c5.3,0,10.5,0,15.8,0
	c2.3,0,4.5,0.4,6.5,1.6c1.9,1.2,3.3,2.8,3.7,5.1c0.1,0.9,0,1.9,0.1,2.8c0,0.5,0,1,0.2,1.5c0.5,2.5,2.2,3.8,4.9,3.8
	c4.8,0,9.6,0,14.4,0c1.4,0,2.8,0,4.2,0c2.9,0.1,5.3,2,5.9,4.9c0.1,0.5,0.1,0.9,0.1,1.4c0,14.8,0,29.6,0,44.4c0,3.6-2.7,6.3-6.2,6.3
	c-5.7,0-11.4,0-17.1,0c-0.9,0-1.5-0.5-1.4-1.3c0-0.8,0.6-1.2,1.5-1.2c5.6,0,11.1,0,16.7,0c2.6,0,4.1-1.5,4.1-4.1c0-10,0-19.9,0-29.9
	c0-0.2,0-0.4,0-0.6c-6.6,0-13.2,0-19.8,0c3,7.7,3.3,15.5,0.5,23.3c-2.9,7.8-8,13.7-15.4,17.6c-11.1,5.9-24.9,4.6-34.7-3.2
	c-3.7-2.9-6.7-6.5-8.8-10.7c-2.1-4.2-3.3-8.6-3.5-13.3c-0.2-4.7,0.6-9.3,2.4-13.7c-6.6,0-13.2,0-19.8,0c0,0.2,0,0.4,0,0.5
	c0,10,0,20.1,0,30.1c0,2.4,1.6,4,4,4c4.7,0,9.4,0,14.1,0c0.2,0,0.4,0,0.6,0c0.7,0.1,1.2,0.6,1.1,1.2c0,0.7-0.5,1.2-1.2,1.2
	c-0.1,0-0.3,0-0.4,0c-4.8,0-9.6,0-14.3,0c-2.9,0-5.2-1.7-6.1-4.3c-0.1-0.4-0.2-0.7-0.3-1.1C8.1,71.5,8.1,56.1,8.1,40.8z M109.6,52.7
	c0-0.3,0-0.5,0-0.7c0-3.3,0-6.6,0-10c0-0.2,0-0.5,0-0.7c-0.2-2-1.7-3.4-3.8-3.4c-1.2,0-2.4,0-3.6,0c-5.1,0-10.1,0-15.2,0
	c-3.5,0-6.1-2.1-6.9-5.5c-0.3-1.2-0.3-2.5-0.2-3.7c0-1.4-0.5-2.6-1.5-3.5c-1.6-1.5-3.5-2-5.6-2.1c-2,0-4,0-5.9,0c-6.3,0-12.7,0-19,0
	c-1.7,0-3.4,0.2-4.9,1.1c-1.7,1-2.7,2.4-2.6,4.4c0,0.7,0,1.4,0,2.1c-0.2,2.3-1,4.3-2.8,5.8c-1.4,1.1-3,1.4-4.8,1.4
	c-6,0-12.1,0-18.1,0c-2.5,0-4,1.5-4,4c0,3.4,0,6.8,0,10.2c0,0.2,0,0.3,0,0.6c7,0,14,0,20.9,0c6.4-11,15.8-17.3,28.6-17.3
	c12.9,0,22.2,6.3,28.6,17.3C95.6,52.7,102.6,52.7,109.6,52.7z M60,37.8c-16.4,0-29.7,13.3-29.7,29.7c0,16.4,13.3,29.7,29.7,29.7
	c16.4,0,29.7-13.3,29.7-29.7C89.8,51.1,76.4,37.8,60,37.8z"/>
<path class="st0" d="M24.1,25.4c1.6,0,3.2,0,4.8,0c2.3,0,3.9,1.5,3.9,3.8c0,0.8,0,1.5,0,2.3c0,0.8-0.5,1.3-1.2,1.3
	c-0.7,0-1.2-0.5-1.2-1.3c0-0.8,0-1.5,0-2.3c0-0.8-0.5-1.3-1.3-1.3c-3.3,0-6.5,0-9.8,0c-0.8,0-1.3,0.5-1.3,1.3c0,0.8,0,1.5,0,2.3
	c0,0.8-0.5,1.4-1.2,1.3c-0.7,0-1.2-0.5-1.2-1.4c0-0.8,0-1.5,0-2.3c0-2.1,1.6-3.7,3.8-3.8C20.9,25.4,22.5,25.4,24.1,25.4z"/>
<path class="st0" d="M60.1,89.8c-12.3,0-22.3-10-22.3-22.3c0-12.3,10-22.3,22.3-22.3c12.3,0,22.3,10,22.3,22.3
	C82.3,79.8,72.3,89.8,60.1,89.8z M79.9,67.5c0-10.9-8.9-19.8-19.8-19.8c-10.9,0-19.8,8.9-19.8,19.8c0,10.9,8.9,19.8,19.8,19.8
	C71,87.3,79.9,78.4,79.9,67.5z"/>
</svg>
