<?xml version="1.0" encoding="utf-8"?>
<!-- Generator: Adobe Illustrator 22.0.1, SVG Export Plug-In . SVG Version: 6.00 Build 0)  -->
<svg version="1.1" id="Vrstva_1" xmlns="http://www.w3.org/2000/svg" xmlns:xlink="http://www.w3.org/1999/xlink" x="0px" y="0px"
	 viewBox="0 0 120 120" style="enable-background:new 0 0 120 120;" xml:space="preserve">
<style type="text/css">
	.st0{display:none;}
	.st1{display:inline;fill:#FFFFFF;}
	.st2{display:none;fill:#FFFFFF;}
	.st3{clip-path:url(#SVGID_2_);}
	.st4{clip-path:url(#SVGID_4_);fill:#FF6003;}
</style>
<g class="st0">
	<path class="st1" d="M8.1,40.8c0.1-0.4,0.2-0.8,0.3-1.1c0.8-2.5,3.1-4.3,5.8-4.3c6.1,0,12.3,0,18.4,0c0.5,0,1.1,0,1.6-0.1
		c2.3-0.5,3.7-2.4,3.8-4.9c0-1.1-0.1-2.1,0.1-3.2c0.4-2.6,2-4.4,4.3-5.5c1.4-0.7,3-1,4.6-1.1c3.1,0,6.3,0,9.4,0c5.3,0,10.5,0,15.8,0
		c2.3,0,4.5,0.4,6.5,1.6c1.9,1.2,3.3,2.8,3.7,5.1c0.1,0.9,0,1.9,0.1,2.8c0,0.5,0,1,0.2,1.5c0.5,2.5,2.2,3.8,4.9,3.8
		c4.8,0,9.6,0,14.4,0c1.4,0,2.8,0,4.2,0c2.9,0.1,5.3,2,5.9,4.9c0.1,0.5,0.1,0.9,0.1,1.4c0,14.8,0,29.6,0,44.4c0,3.6-2.7,6.3-6.2,6.3
		c-5.7,0-11.4,0-17.1,0c-0.9,0-1.5-0.5-1.4-1.3c0-0.8,0.6-1.2,1.5-1.2c5.6,0,11.1,0,16.7,0c2.6,0,4.1-1.5,4.1-4.1
		c0-10,0-19.9,0-29.9c0-0.2,0-0.4,0-0.6c-6.6,0-13.2,0-19.8,0c3,7.7,3.3,15.5,0.5,23.3c-2.9,7.8-8,13.7-15.4,17.6
		c-11.1,5.9-24.9,4.6-34.7-3.2c-3.7-2.9-6.7-6.5-8.8-10.7c-2.1-4.2-3.3-8.6-3.5-13.3c-0.2-4.7,0.6-9.3,2.4-13.7
		c-6.6,0-13.2,0-19.8,0c0,0.2,0,0.4,0,0.5c0,10,0,20.1,0,30.1c0,2.4,1.6,4,4,4c4.7,0,9.4,0,14.1,0c0.2,0,0.4,0,0.6,0
		c0.7,0.1,1.2,0.6,1.1,1.2c0,0.7-0.5,1.2-1.2,1.2c-0.1,0-0.3,0-0.4,0c-4.8,0-9.6,0-14.3,0c-2.9,0-5.2-1.7-6.1-4.3
		c-0.1-0.4-0.2-0.7-0.3-1.1C8.1,71.5,8.1,56.1,8.1,40.8z M109.6,52.7c0-0.3,0-0.5,0-0.7c0-3.3,0-6.6,0-10c0-0.2,0-0.5,0-0.7
		c-0.2-2-1.7-3.4-3.8-3.4c-1.2,0-2.4,0-3.6,0c-5.1,0-10.1,0-15.2,0c-3.5,0-6.1-2.1-6.9-5.5c-0.3-1.2-0.3-2.5-0.2-3.7
		c0-1.4-0.5-2.6-1.5-3.5c-1.6-1.5-3.5-2-5.6-2.1c-2,0-4,0-5.9,0c-6.3,0-12.7,0-19,0c-1.7,0-3.4,0.2-4.9,1.1c-1.7,1-2.7,2.4-2.6,4.4
		c0,0.7,0,1.4,0,2.1c-0.2,2.3-1,4.3-2.8,5.8c-1.4,1.1-3,1.4-4.8,1.4c-6,0-12.1,0-18.1,0c-2.5,0-4,1.5-4,4c0,3.4,0,6.8,0,10.2
		c0,0.2,0,0.3,0,0.6c7,0,14,0,20.9,0c6.4-11,15.8-17.3,28.6-17.3c12.9,0,22.2,6.3,28.6,17.3C95.6,52.7,102.6,52.7,109.6,52.7z
		 M60,37.8c-16.4,0-29.7,13.3-29.7,29.7c0,16.4,13.3,29.7,29.7,29.7c16.4,0,29.7-13.3,29.7-29.7C89.8,51.1,76.4,37.8,60,37.8z"/>
	<path class="st1" d="M24.1,25.4c1.6,0,3.2,0,4.8,0c2.3,0,3.9,1.5,3.9,3.8c0,0.8,0,1.5,0,2.3c0,0.8-0.5,1.3-1.2,1.3
		c-0.7,0-1.2-0.5-1.2-1.3c0-0.8,0-1.5,0-2.3c0-0.8-0.5-1.3-1.3-1.3c-3.3,0-6.5,0-9.8,0c-0.8,0-1.3,0.5-1.3,1.3c0,0.8,0,1.5,0,2.3
		c0,0.8-0.5,1.4-1.2,1.3c-0.7,0-1.2-0.5-1.2-1.4c0-0.8,0-1.5,0-2.3c0-2.1,1.6-3.7,3.8-3.8C20.9,25.4,22.5,25.4,24.1,25.4z"/>
	<path class="st1" d="M60.1,89.8c-12.3,0-22.3-10-22.3-22.3c0-12.3,10-22.3,22.3-22.3c12.3,0,22.3,10,22.3,22.3
		C82.3,79.8,72.3,89.8,60.1,89.8z M79.9,67.5c0-10.9-8.9-19.8-19.8-19.8c-10.9,0-19.8,8.9-19.8,19.8c0,10.9,8.9,19.8,19.8,19.8
		C71,87.3,79.9,78.4,79.9,67.5z"/>
</g>
<path class="st2" d="M57.6,95.4c0-2.4,0-4.6,0-7c-0.9,0-1.7,0-2.6,0c-12.6,0-25.3,0-37.9,0c-6.1,0-9.2-3.1-9.2-9.2
	c0-16.7,0-33.4,0-50.1c0-5.9,3-9,8.9-9c29.1,0,58.2,0,87.3,0c5.8,0,8.9,3.1,9,9c0,16.8,0,33.5,0,50.3c0,5.9-3.2,9-9.2,9
	c-12.6,0-25.1,0-37.7,0c-0.9,0-1.7,0-2.8,0c0,2.3,0,4.5,0,7c0.9,0,1.7,0,2.6,0c8,0,16.1,0,24.1,0c0.8,0,1.8-0.2,2.3,0.2
	c0.9,0.6,1.9,1.7,1.9,2.6c0,0.9-1.1,1.9-1.9,2.6c-0.4,0.4-1.4,0.1-2.1,0.1c-19.9,0-39.7,0-59.6,0c-0.6,0-1.5,0.2-1.9-0.1
	c-0.9-0.7-2.1-1.7-2.1-2.6c0-0.9,1.2-1.9,2.2-2.6c0.5-0.4,1.5-0.1,2.3-0.1C39.9,95.4,48.6,95.4,57.6,95.4z M60.4,82.8
	c14.4,0,28.8,0,43.2,0c3.4,0,3.9-0.5,3.9-3.8c0-16.5,0-32.9,0-49.4c0-3.4-0.6-4.1-4-4.1c-28.7,0-57.4,0-86.1,0
	c-3.2,0-3.9,0.7-3.9,3.9c0,16.5,0,32.9,0,49.4c0,3.5,0.5,4,4,4C31.8,82.8,46.1,82.8,60.4,82.8z"/>
<g id="Kresba_1_1_">
	<g>
		<defs>
			<rect id="SVGID_1_" x="1.5" y="19.5" width="117" height="81"/>
		</defs>
		<clipPath id="SVGID_2_">
			<use xlink:href="#SVGID_1_"  style="overflow:visible;"/>
		</clipPath>
		<g class="st3">
			<defs>
				<rect id="SVGID_3_" x="1.5" y="19.5" width="117" height="81"/>
			</defs>
			<clipPath id="SVGID_4_">
				<use xlink:href="#SVGID_3_"  style="overflow:visible;"/>
			</clipPath>
			<path class="st4" d="M111.4,60c4.8,4.6,7.1,10.2,7.1,16.9c0,3.2-0.6,6.3-1.8,9.1c-1.2,2.9-2.9,5.4-5.1,7.5
				c-2.1,2.2-4.7,3.8-7.6,5.2c-2.8,1.2-5.9,1.8-9.1,1.8H64.6V86.9h30.4c1.3,0,2.6-0.2,3.8-0.7c1.3-0.5,2.4-1.2,3.3-2.2
				c0.9-0.9,1.6-2,2.1-3.2c0.5-1.2,0.8-2.5,0.8-3.8c0-1.3-0.3-2.6-0.8-3.8c-0.5-1.2-1.2-2.3-2.1-3.2c-0.9-0.9-1.9-1.7-3.1-2.2
				c-1.3-0.5-2.6-0.8-4-0.8H64.6H51.1V53.3h8.1h5.4h30.4c1.3,0,2.6-0.2,3.8-0.8c1.3-0.5,2.4-1.2,3.3-2.2c0.9-0.9,1.6-2,2.1-3.2
				c0.5-1.2,0.8-2.5,0.8-3.9c0-1.3-0.3-2.6-0.8-3.8c-0.5-1.2-1.2-2.3-2.1-3.2c-0.9-1-2-1.7-3.3-2.2c-1.2-0.5-2.5-0.7-3.8-0.7H64.6
				L51.1,19.5h43.8c3.1,0,6.2,0.6,9.1,1.8c2.9,1.3,5.5,2.9,7.6,5.2c2.1,2.1,3.8,4.6,5.1,7.5c1.2,2.8,1.8,5.9,1.8,9.1
				C118.5,49.7,116.2,55.3,111.4,60"/>
			<path class="st4" d="M34.1,33.2v40.4c0,3.7-1.3,6.8-3.9,9.4l0,0c-2.6,2.6-5.7,4-9.5,4c-3.6,0-6.8-1.3-9.4-3.9l-9.7,9.7
				c5.3,5.2,11.6,7.8,19.1,7.8c7.5,0,13.8-2.4,19.1-7.8c5.3-5.4,8-11.7,8-19.1v-54L34.1,33.2z"/>
		</g>
	</g>
</g>
</svg>
